<?xml version="1.0" encoding="utf-8"?>
<!-- Generator: Adobe Illustrator 27.3.1, SVG Export Plug-In . SVG Version: 6.00 Build 0)  -->
<svg version="1.1" xmlns="http://www.w3.org/2000/svg" xmlns:xlink="http://www.w3.org/1999/xlink" x="0px" y="0px"
	 viewBox="0 0 150.1 110" style="enable-background:new 0 0 150.1 110;" xml:space="preserve">
<style type="text/css">
	.st0{fill:#F3E5C9;}
	.st1{fill:#9F7852;}
</style>
<g id="Layer_2">
	<path id="Path_4631" class="st0" d="M13.3,28.7c-0.8,1.7-2,4.3-1.2,6c1.3,2.8,0.4,5.3,4.2,5.8c4.5,0.6,7.2,4.1,9.7,7.2
		c1.4,1.7,2.1,4.9,2.5,7.2c0.3,1.6,0.4,3.3,0.3,4.9c0,0.5-0.1,1-0.1,1.4c-0.2,0.9-0.7,5.2-1.1,6c-1.9-1.5-3.5-3.3-4.8-5.4
		c-1.9-3.3-5-3.7-7.2-0.7c-1.3,1.7-1.7,3.2-3.8,4.2c-1,0.5-0.9,1.2-1.2,1.5c-2.4,2.9-4.9,5.7-7.6,8.3c-3.3,3.3-4.1,10.6-1.5,15.3
		c2.3-2.8,5.7-4.3,5.4-8.9c0-2.3,1.5-4.3,3.7-5c0.3,4.6-1.2,9.1,0.5,13.5c7.3-3,5.9-10.2,7.4-16.1c1.9,2,5.6,7.2,7.4,8.5v0
		c1.4,3.1,4.7,4.8,8,4.1c3.4-0.7,6.5,0.4,10.4,3.3c0.6,0.4,1.3,0.8,1.9,1.1c10.5,5.1,32.1-1.4,37.7-11.7c1.9-3.4,5.6-4.7,7.9-7.5
		c0.1-0.1,0.2-0.2,0.4-0.3c0,0,0,0,0.1-0.1s0,0,0.1,0c1.5,0.7,2.9,1.5,4.2,2.5c1.7,1.1,3.5,2.1,5.4,2.9c1.6,0.7,3.4,1.3,5.1,1.7
		c0.7,0.3,4.6,2.6,6,3.5c5.6,3.8,9.3,9.4,12.6,15.2c2.7,5.1,6.7,9.4,11.5,12.5c1.4-3.2,1.1-6.3,0.6-9.3c-0.5-3.1-3-5.3-4.8-7.2
		c-3.3-3.6-4.7-7.8-6.4-12.2c8,6.2,11.4,17.7,23.1,19.5c0.6-5.3-1-9.5-5-12c-0.6-0.3-0.9-0.8-1.1-1.4c-0.1-1-0.7-1.8-1.6-2.2
		c-1.6-0.8-2.9-2.1-3.7-3.6c-2.9-5-6-9.9-6.8-15.9c-0.3-2.5-1.3-4.2-4.5-3.4c-3.2,0.8-6-1.5-7.7-4.5c-1.8-3.8-5.5-12.3-14.1-14.6
		l-0.1,0c0-0.3,0.1-0.7,0.2-1c0,0,0-0.1,0-0.1c-1.3-0.2-2.6-0.4-3.9-0.8c-0.2,0.6-0.5,1.1-0.7,1.8c-0.7,0-1.5,0.1-2.3,0.2l-0.3,0
		c-0.5,0.1-1.1,0.1-1.6,0.2c-6.2,0.9-16.3,2.1-22.4,10.6c-2.4,3.3-5.5,4.6-8.8,3.8c-3.6-1-6.5-3.6-7.9-7.1c-1.9-4.2-2.9-5.5-5.3-7.4
		c-2.4-1.8-4.5-3.9-6.3-6.3c-1.4-2.1-3.1-4-6.1-2.1c2.3-2.3,5.8-3.7,5-7.9c-2.4-0.2-4.8,0.4-6.8,1.6c-2.1-2.2-8.1-3.3-11-1.5
		c-3.6,2.1-7.3,2-11.2,1.1C15,28,13.7,27.7,13.3,28.7"/>
</g>
<g id="Layer_3">
	<g>
		<g id="Group_388">
			<g>
				<path id="Path_4633" class="st1" d="M131.7,75.8c-0.5-0.6-1.2-1.1-1.7-1.7c-0.6-0.6-0.9-1.6-0.7-2.4c0.1-0.2,0.1-0.5,0.2-0.7
					c0.2-0.9-0.1-1.8-0.8-2.3c-0.2-0.2-0.6-0.3-0.9-0.2c-0.3,0.1-0.6,0-0.9-0.1c-0.7-0.3-1.3-0.5-2-0.8c-0.6-0.3-1.3-0.4-1.9-0.4
					c-0.6,0-1.2,0.4-1.4,1c-0.2,0.6-0.3,1.3-0.3,2c0,1.1,0.6,2.2,1.6,2.7c0.7,0.4,1.5,0.7,2.3,1c1.2,0.5,2.2,1.4,2.8,2.6
					c0.3,0.7,0.7,1.4,1.1,2c0.4,0.6,1.1,1,1.8,1.1c1,0.2,1.9-0.5,2-1.4c0.1-0.4,0-0.7-0.2-1.1C132.4,76.6,132.1,76.2,131.7,75.8"/>
				<g>
					<path id="Path_4632" class="st1" d="M145,88.7c-0.6-0.3-0.9-0.8-1.1-1.4c-0.1-1-0.7-1.8-1.6-2.2c-1.6-0.8-2.9-2.1-3.7-3.6
						c-2.9-5-6-9.9-6.8-15.9c-0.3-2.5-1.3-4.2-4.5-3.4c-3.2,0.8-6-1.5-7.7-4.5c-1.8-3.8-5.5-12.3-14.1-14.6l-0.1,0
						c0-0.3,2.1-6.5-3.5-13.5c-0.8-1-1.7-1.9-2.5-2.9c-3.3-4.2-2.5-9,2-11.8c2.9-1.8,3.7-4.4,3.6-7.4c-0.1-2.8-1.7-5.4-4.2-6.6
						c-2-1-3.9-1.1-5.5,1c0.5,0.8,2,0.1,2.5,1.4l-1.8,0.3c2.8,4.3,2,8.9,0.3,12.9c-2.3,5.3-1.3,9.5,2.1,13.7
						c1.2,1.5,2.3,3.1,3.1,4.9c1.1,2.1-0.1,6.9-0.6,8c-0.7,0-1.5,0.1-2.3,0.2c-0.1,0-0.2,0-0.3,0c-0.5,0.1-1.1,0.1-1.6,0.2
						c-6.2,0.9-16.3,2.1-22.4,10.6c-2.4,3.3-5.5,4.5-8.8,3.8c-3.6-1-6.5-3.6-7.9-7.1c-1.9-4.2-2.9-5.5-5.3-7.4
						c-2.4-1.8-4.5-3.9-6.3-6.3c-1.4-2.1-3.1-4-6.1-2.1c2.3-2.3,5.8-3.7,5-7.9c-2.4-0.2-4.8,0.4-6.8,1.6c-2.1-2.2-8.1-3.3-11-1.5
						c-3.6,2.1-7.3,2-11.2,1.1c-1-0.2-2.2-0.5-2.6,0.4c-0.8,1.7-2,4.3-1.2,6c1.3,2.8,0.4,5.3,4.2,5.8c4.5,0.6,7.2,4.1,9.7,7.2
						c1.4,1.7,2.1,4.9,2.5,7.2c0.3,1.6,0.4,3.3,0.3,4.9c0,0.5-0.1,1-0.1,1.4c-0.2,0.9-0.7,5.2-1.1,6c-1.9-1.5-3.5-3.3-4.8-5.4
						c-1.9-3.3-5-3.7-7.2-0.7c-1.3,1.7-1.7,3.2-3.8,4.2c-1,0.5-0.9,1.2-1.2,1.5c-2.4,2.9-4.9,5.7-7.6,8.3
						c-3.3,3.3-4.1,10.6-1.5,15.3c2.3-2.8,5.7-4.3,5.4-8.9c0-2.3,1.5-4.3,3.7-5c0.3,4.6-1.2,9.1,0.5,13.5c7.3-3,5.9-10.2,7.4-16.1
						c1.9,2,5.6,7.2,7.4,8.5c0,0,0,0,0,0c1.4,3.1,4.7,4.8,8,4.1c3.4-0.7,6.5,0.4,10.4,3.3c0.6,0.4,1.3,0.8,1.9,1.1
						c10.5,5.1,32.1-1.4,37.7-11.7c1.9-3.4,5.6-4.7,7.9-7.5c0.1-0.1,0.2-0.2,0.4-0.3c0,0,0,0,0.1-0.1s0,0,0.1,0
						c1.5,0.7,2.9,1.5,4.2,2.5c1.7,1.1,3.5,2.1,5.4,2.9c1.6,0.7,3.4,1.3,5.1,1.7c0.7,0.3,4.6,2.6,6,3.5c5.6,3.8,9.3,9.4,12.6,15.2
						c2.7,5.1,6.7,9.4,11.5,12.5c1.4-3.2,1.1-6.3,0.6-9.3c-0.5-3.1-3-5.3-4.8-7.2c-3.3-3.6-4.7-7.8-6.4-12.2
						c8,6.2,11.4,17.7,23.1,19.5C150.6,95.4,149,91.2,145,88.7 M10.9,74.1c-0.1,0-0.1,0.1-0.2,0.1c-0.4,0.3-0.9,0.3-1.3,0.1
						c-0.1,0-0.1-0.1-0.2-0.1c-0.3-0.2-0.7-0.3-1-0.4c-0.3-0.1-0.5,0-0.7,0.1c-0.4,0.2-0.5,0.5-0.2,0.9c0.2,0.2,0.3,0.3,0.5,0.5
						C8.1,75.5,8.1,75.8,8,76c0,0.1-0.1,0.1-0.1,0.1c-0.2,0.2-0.4,0.4-0.6,0.5c-0.3,0.3-0.4,0.7-0.3,1.2c-1.5,1-3.2,1.6-5,1.7
						c0.5-1.1,3.3-4.5,6.2-7.6C8.4,72.6,9,73,9.7,73.1c0.5,0.1,0.7-0.1,0.9-0.6c0.1-0.2,0.1-0.4,0.1-0.7c0.1-0.6,0-1.2-0.3-1.7
						c-0.1-0.2-0.2-0.3-0.4-0.4c1.2-1.4,2.5-2.7,4-3.9c-0.1,2.9-1.1,5.7-2.9,8L10.9,74.1 M27.1,71c-0.5,3.4-0.9,7.5-1.1,9.8
						c-2.3-2.9-6.3-7-6.4-10.3c-1.6,1.5-2.7,3.5-3,5.7c-0.3,3.1-2,3.6-4.7,3.3c-0.4-2.3,0.6-4.3,1.2-6.3c1-3.2,3-6.2,2.8-9.8
						c-0.1-1.5,1.3-2.3,2.5-2.6c1.3-0.4,2.7,0.3,3.2,1.5c1,2,2.4,3.8,4.1,5.2C26.8,68.4,27.3,69.7,27.1,71 M46.9,45.8
						c0.8-0.9,1.8-1.6,3-1.9c1.1-0.3,2.3,0.1,2.9,1.2c0.7,1.2,1,2.6,0.8,4c-0.1,0.5-0.2,1.1-0.3,1.6c-0.2,1-1.2,1.7-2.2,1.4
						c0,0,0,0,0,0c-1.9-0.2-3.6-1.4-4.4-3.1C46,48,46.1,46.7,46.9,45.8 M30.5,57.9c0-0.5,0.1-0.9,0-1.4c0,0,0,0,0,0
						c0,0,0.1-0.1,0.1-0.1c0.2-0.3,0.6-0.5,1-0.4c0.2,0,0.4,0.1,0.6,0.1c0.4,0,0.7-0.2,0.8-0.6c0.1-0.5-0.1-1.1-0.6-1.4
						c-0.1-0.1-0.3-0.1-0.4-0.2c-0.2-0.1-0.3-0.3-0.3-0.6c0-0.2,0.1-0.4,0.2-0.5c0.1-0.2,0.2-0.3,0.3-0.5c0.2-0.3,0.2-0.6,0.2-1
						c0-0.2-0.1-0.4-0.1-0.6c-0.1-0.3-0.3-0.7-0.5-1c-0.3-0.3-0.7-0.5-1.1-0.4c-0.2,0-0.5,0.1-0.7,0.2c-0.4,0.1-0.8,0.1-1.1-0.1l0,0
						c0,0,0,0,0,0c-0.4-0.9-0.8-1.8-1.3-2.7c-0.5-1.1-1.4-1.9-2.6-2.3c-0.8-0.2-1.4-0.7-1.8-1.4c-1.3-2.6-3.8-3.5-6.8-3.9
						c-3.2-0.4-4.7-7.1-2.4-9.5c0.4-0.4,0.9-0.8,1.4-0.5c2.3,1.4,4.8,0.5,7.2,0.8c0.9,0.1,1.7,0,2.5-0.4c4.3-2.1,4.3-2.1,9.9-2
						c-0.1,2.2-1.7,2.5-3.3,2.4c-4.2-0.4-7.9,2.5-12.3,1.6c-1.8-0.4-1.9,2.2-2.2,3.7c-0.2,1,0.4,2,1.4,2.3c0.2,0.1,0.4,0.1,0.7,0
						c2.9-0.2,4.4,2.9,6.9,3.1c0.7,0.1,0.7,0.4,0.7,0.6c-0.1,4.4,2.7,4.7,6.4,3.7c-1,3,0.1,5.1,1.5,7.2c0.3,0.4,0.5,0.9,0.7,1.4
						c-0.1,0.1-0.3,0.3-0.4,0.4C33.5,55.5,30.3,60.7,30.5,57.9 M30.7,32.3c0,0.1,0,0.3-0.1,0.4c-0.1,0.3-0.3,0.4-0.6,0.4
						c0,0,0,0,0,0c-0.5-0.1-0.9-0.4-1.1-0.8c-0.1-0.3-0.1-0.6,0.1-0.8c0.2-0.2,0.5-0.4,0.8-0.5c0.3-0.1,0.6,0,0.7,0.3
						C30.7,31.6,30.7,31.9,30.7,32.3 M44.4,85.5c0,0.1,0,0.1-0.1,0.2c-0.2,0.5-0.6,0.6-1,0.2c-0.3-0.4-0.6-0.8-0.8-1.2
						c-0.4-0.5-0.8-1-1.3-1.4c-0.8-0.7-1.9-0.9-2.9-0.5c-0.9,0.4-1.8,0.7-2.7,0.8c-1.1,0.2-2.2-0.1-3-0.8c-0.6-0.4-0.7-1.1-0.3-1.7
						c0.1-0.1,0.2-0.3,0.3-0.3c0.4-0.4,0.9-0.7,1.3-1c0.2-0.2,0.5-0.3,0.7-0.5c0.7-0.4,0.9-1.2,0.5-1.9c0-0.1-0.1-0.2-0.2-0.2
						c-0.4-0.6-0.8-1.1-1.3-1.6c-1.1-1.1-1.1-2.8-0.1-3.9c0.5-0.8,1.5-1.1,2.3-0.6c0.2,0.1,0.4,0.3,0.6,0.6c0.2,0.2,0.3,0.5,0.5,0.7
						c0.3,0.6,0.9,1,1.5,1.3c0.8,0.3,1.4,1,1.5,1.9c0,0,0,0.1,0,0.1c0.1,1.5,0.9,2.8,2.2,3.6c0.9,0.6,1.6,1.4,2.2,2.4
						C44.8,82.9,44.8,84.2,44.4,85.5 M48.3,68.3c-0.1-0.4-0.1-0.7-0.2-1.1c-0.1-1.3-0.8-2.4-1.9-3.1c-0.6-0.4-1.2-0.7-1.8-1.1
						c-2.5-1.4-3.8-4.2-3.1-7c0.1-0.6,0.3-1.2,0.6-1.7c0.3-0.7,0.9-1.3,1.5-1.8c0.8-0.7,1.9-0.7,2.7,0c0.7,0.5,1.4,1.1,2.1,1.6
						c0.8,0.6,1.9,0.8,2.9,0.4c0.4-0.2,0.8-0.3,1.1-0.4c1.1-0.4,2.3-0.4,3.3,0.1c0.6,0.3,1.2,0.7,1.7,1.2c0.7,0.9,0.9,2,0.6,3.1
						c-0.1,0.4-0.2,0.9-0.4,1.3c-0.4,1.1-0.3,2.4,0.2,3.5c0.3,0.6,0.5,1.3,0.6,2c0.3,1.2-0.4,2.4-1.5,2.8c-0.9,0.4-1.6,0.9-2.2,1.6
						c-0.1,0.2-0.3,0.4-0.4,0.6c-0.7,1.1-2,1.5-3.2,1.1C49.6,70.8,48.6,69.7,48.3,68.3 M62,89c-0.8,0.8-1.7,1.4-2.8,1.6
						c-0.5,0.2-1,0.3-1.6,0.3c-1.4,0.2-2.8,0-4-0.7c-0.8-0.4-1.3-1.1-1.6-1.9c-0.2-0.7-0.1-1.4,0.4-1.9c0.3-0.4,0.7-0.7,1-1
						c0.6-0.5,1-1.3,1-2.1c-0.1-1.3,0.8-2.4,2-2.5c0,0,0.1,0,0.1,0c0.7-0.2,1.5-0.2,2.2,0.1c0.7,0.2,1.2,0.8,1.3,1.6
						c0,0.3,0.1,0.7,0.1,1c0,0.9,0.3,1.7,0.9,2.3c0.3,0.3,0.7,0.6,1,1c0.6,0.5,0.8,1.4,0.3,2C62.2,88.9,62.1,89,62,89 M89.5,59.9
						c-0.4,0.9-1,1.7-1.7,2.3c-0.4,0.4-0.8,0.7-1.2,1c-0.7,0.6-1.6,0.8-2.5,0.7c-0.5,0-1-0.1-1.4-0.1c-0.5,0-1,0.1-1.5,0.3
						c-0.6,0.2-0.9,0.7-1,1.3C80,65.9,80,66.3,80,66.7c-0.1,1.5-1.2,2.7-2.6,3.1c-1,0.3-2-0.2-2.4-1.1c-0.2-0.5-0.4-1-0.6-1.6
						c-0.3-1-1.1-1.7-2.1-1.9c-0.1,0-0.3-0.1-0.4-0.1c-0.9-0.1-1.5-0.9-1.5-1.7c-0.1-1,0.3-2,1-2.8c0.4-0.5,0.8-0.9,1.3-1.3
						c0.9-0.8,1.9-1.5,2.9-2.1c1.7-1,3-2.5,3.7-4.3c0.4-1,1-1.8,1.8-2.5c1.3-1.1,3.1-1.4,4.7-0.7c0.7,0.3,1.2,1,1.2,1.8
						c0,0.3,0,0.7,0,1c-0.1,1,0.2,2,0.9,2.8c0.4,0.5,0.9,1,1.3,1.5C89.9,57.7,90,58.9,89.5,59.9 M109.8,54.6
						c0.2-0.1,0.4-0.2,0.6-0.4c0.2-0.2,0.5-0.3,0.7-0.5c0.4-0.3,0.7-0.7,0.8-1.2c0.1-0.3,0.1-0.5,0.2-0.8c0.1-0.5,0.5-0.8,1-0.9
						c1-0.2,1.9,0.2,2.5,0.9c0.5,0.6,0.8,1.4,0.9,2.2c0.1,0.5,0.2,1,0.4,1.5c0.3,0.6,0.6,1.2,1.1,1.6c0.6,0.7,1.2,1.4,1.7,2.2
						c0.3,0.5,0.6,1.1,0.7,1.7c0.1,0.5-0.1,1-0.4,1.3c-0.2,0.3-0.5,0.4-0.8,0.4c-0.2,0-0.5,0-0.7,0c-0.4,0-0.8,0.2-1.1,0.5
						c-0.3,0.3-0.5,0.7-0.8,1c-0.3,0.4-0.7,0.6-1.2,0.6c-0.4,0-0.7-0.2-1-0.5c-0.6-0.6-0.8-1.4-0.6-2.2c0-0.1,0.1-0.2,0.1-0.4
						c0.1-0.6-0.1-1.2-0.7-1.4c-0.2-0.1-0.4-0.2-0.6-0.2c-0.1,0-0.1,0-0.2,0c-1.5-0.2-1.8-0.5-2.7-1.9c-0.3-0.5-0.5-1.1-0.7-1.7
						C108.9,55.8,109.2,55,109.8,54.6 M106.7,67.2c0.3-0.4,0.7-0.7,1-1.1c0.4-0.5,0.5-1.2,0.3-1.8c-0.1-0.4-0.2-0.7-0.3-1.1
						c-0.2-0.8,0.2-1.7,1.1-2c0.8-0.4,1.8-0.1,2.2,0.7c0.3,0.5,0.4,1.1,0.1,1.6c-0.1,0.2-0.2,0.4-0.3,0.6c-0.2,0.5,0,1.1,0.4,1.4
						c0.3,0.2,0.6,0.4,0.9,0.6c0.2,0.1,0.5,0.3,0.7,0.4c0.2,0.1,0.4,0.3,0.5,0.6c0.4,0.8,0.1,1.3-0.9,1.7c-0.2,0-0.4,0.1-0.6,0.2
						c-0.9,0.2-1.7,0.6-2.4,1.2c-0.4,0.3-0.7,0.5-1.2,0.7c-1,0.4-2.1,0.1-2.7-0.8c-0.3-0.4-0.3-1,0-1.4
						C105.8,68.2,106.2,67.7,106.7,67.2 M128.2,88.6C128.2,88.7,128.1,88.7,128.2,88.6c-0.7,0.4-1,1.3-0.6,2c0.2,0.3,0.4,0.6,0.6,1
						c0.3,0.6,0.2,0.9-0.3,1.2c-0.4,0.2-0.7,0.4-1.1,0.6c-0.3,0.2-0.4,0.5-0.2,0.8c0,0,0,0.1,0.1,0.1c0.3,0.5,0.9,0.7,1.4,0.7
						c0.5,0,1-0.1,1.5-0.2c0.6-0.2,1.2,0,1.6,0.5c0.1,0.1,0.2,0.2,0.3,0.3c0.2,0.3,0.3,0.6,0.5,0.9c-0.4,0.9-1.4,1.7-3,2.8
						c-3.2-6.8-7.9-12.7-13.9-17.2c-0.9-0.7-4.1-2.7-4.4-2.9c0.8,0.1,6.3-1.2,7.8-1.2c2.9-0.1,5.3,0.5,6.6,3.8
						C125.8,84.1,126.9,86.4,128.2,88.6 M139.1,92.6c-2.7-3.4-5.5-6.8-8.1-10.3c-4.5-5.9-10.1-6.9-17.1-5.3
						c-2.4,0.6-8.8-0.8-12.5-2.7c-1.1-0.5-2.1-1.1-3.1-1.7c-0.1-0.1-0.1-0.2-0.1-0.3c0.1-0.1,0.2-0.1,0.3-0.1l1.9,0.5
						c6.1,1.7,12.6-0.5,16.6-5.5l0.1-0.1c0.5-0.7,1.3-1.2,2.1-1.4c1-0.2,1.8,0.2,3,0.7c1.8,0.7,3.6-0.1,4.9-1.6
						c0.5-0.6,0.9-1.3,1.8-1c0.8,0.3,0.8,1.2,1.1,1.9c2.2,7.5,5.1,14.5,10.8,20.1C142.3,87.4,141.7,90,139.1,92.6"/>
					<path id="Path_4634" class="st1" d="M25,69.2c-0.3,0.1-0.6,0.3-1,0.4c-0.4,0.2-0.9,0-1.1-0.4c-0.1-0.1-0.1-0.2-0.2-0.4
						c-0.2-0.3-0.5-0.5-0.8-0.6c-0.6-0.1-1.2,0.3-1.4,0.9c-0.2,0.6,0.1,1.3,0.7,1.5c0,0,0,0,0,0c0.2,0.1,0.5,0.2,0.7,0.3
						c0.5,0.1,0.8,0.5,1,1c0.1,0.4,0.2,0.8,0.3,1.3c0.1,0.4,0.2,0.8,0.4,1.2c0.1,0.2,0.3,0.4,0.6,0.4c0.7,0.1,1.4-0.4,1.6-1.1
						c0.1-0.4,0.1-0.9,0.1-1.4c0-0.5,0-1,0.2-1.5c0.1-0.2,0.1-0.4,0.2-0.6h0c0-0.1,0.1-0.2,0.1-0.3c0.1-0.4-0.1-0.7-0.5-0.8
						c0,0,0,0,0,0C25.6,69,25.3,69.1,25,69.2"/>
					<path id="Path_4635" class="st1" d="M15.9,30.5c-0.4,0-0.7,0.2-1,0.4c-0.3,0.2-0.4,0.6-0.3,1c0.1,0.6,0.5,1,1.1,1.2
						c0.3,0.1,0.6,0,0.7-0.3c0,0,0,0,0,0c0.1-0.2,0.2-0.3,0.2-0.5c0.2-0.4,0.2-0.9,0-1.3C16.5,30.7,16.2,30.4,15.9,30.5"/>
					<path id="Path_4636" class="st1" d="M29.8,31.4c-0.2,0-0.2,0.2-0.1,0.4c0,0.1,0.1,0.2,0.1,0.3c0.1,0.3,0.2,0.5,0.4,0.7
						c0.2,0.2,0.3,0.2,0.4,0c0.1-0.2,0.2-0.4,0.2-0.6c0-0.2-0.1-0.5-0.2-0.6C30.4,31.4,30.1,31.3,29.8,31.4"/>
				</g>
			</g>
		</g>
	</g>
</g>
</svg>
