<?xml version="1.0" encoding="utf-8"?>
<!-- Generator: Adobe Illustrator 27.3.1, SVG Export Plug-In . SVG Version: 6.00 Build 0)  -->
<svg version="1.1" id="Group_387" xmlns="http://www.w3.org/2000/svg" xmlns:xlink="http://www.w3.org/1999/xlink" x="0px" y="0px"
	 viewBox="0 0 122.5 89.5" style="enable-background:new 0 0 122.5 89.5;" xml:space="preserve">
<style type="text/css">
	.st0{fill:#092D3D;}
</style>
<g>
	<g id="Group_386">
		<path id="Path_4627" class="st0" d="M10.4,62.6c0.2,0.7,0.7,1.4,1.2,1.9c0.4,0.4,0.9,0.7,1.4,0.9c0.1,0,0.3-0.4,0.4-0.4
			c0-0.7-0.4-1.4-0.9-1.7C11.9,63,11.2,62.7,10.4,62.6"/>
		<path id="Path_4628" class="st0" d="M42.1,55c0.2-1.1,0.4-1.6,0.1-2.1c-0.1-0.2-0.3-0.3-0.5-0.4c-0.5-0.2-0.9-0.1-1.3,0.5
			c-0.3,1-0.3,2-0.2,3c0.1,0.7,0.4,2.5,0.8,2.5C41.5,58.4,41.9,56,42.1,55"/>
		<path id="Path_4629" class="st0" d="M1.1,58c1.3,0.7,2.8,1.2,4.3,1.8c-0.3,0.9-0.8,1.7,0.3,2.4c0.7,0.5,1,1.4,0.8,2.2
			c-0.2,1.2,0.2,2.4,0.9,3.3c1.3,1.9,2.4,3.9,3,6.2c0.9,2.5,1.6,2.9,4.2,2.7c0.6-0.1,1.2-0.2,1.8-0.5c1.8-1,3.5-2,4.2-4.3
			c0.5-1,1.3-1.9,2.2-2.5c1.9-1.5,3-3.8,2.8-6.2c0-0.1,0-0.3,0-0.4c0.2-5.8,1.7-7.2,1.3-5.6c-0.7,3.3-0.8,6.8-0.3,10.2
			c0.1,0.4,0.2,0.8,0.2,1.2c0.2,2,0.7,4,1.4,5.9c0.7,1.4,1.3,2.9,3.3,2.6c0.2,0,0.4-0.1,0.6-0.2h0c0.4-0.2,0.7-0.6,0.6-1
			c-0.3-2.1-0.3-4.3,0-6.4c2.8-2.5,5.7-4.8,8.9-6.8c3.3-2,0.3-8,5.4-13.8c1.7-1.9,3.6-3.5,5.6-4.8c2.9-1.9,14.7-3.3,15-3.1
			c0.3,0.3,0.3,0.7,0.1,1.1c-0.8,1-1.4,2.1-2,3.2c-0.5,1.1-0.7,2.2-0.7,3.4c0,0.4,0,0.8,0.1,1.2c0.5,3.5,2.2,6.7,4.8,9
			c0.7,0.6,1.4,1.2,2.1,1.7l0,0c0.1,0.1,0.3,0.3,0.4,0.4c2.2,2.2,2,6.5-0.1,8.7c-1,0.8-2.1,1.4-3.3,1.7c-1.9,0.8-3.7,2.1-5,3.7
			c-0.9,1.1-0.6,1.8,0.7,2.1c1.6,0.5,3.3,0.2,4.6-0.8c1.6-1.2,3.3-2.1,5.2-2.7c1.1-0.4,2.8-1.1,4.1-1.7c0.8-0.4,1.7-0.9,2.4-1.4
			c0,0.1,0.1,0.1,0.2,0.1c0.9,0.3,1.9,0.6,2.8,0.9c2.9,1.1,4.5,5.1,3.6,8c-0.5,1.1-1.3,2.2-2.3,2.9c-1.4,1.5-2.5,3.4-3,5.5
			c-0.3,1.3,0.2,1.9,1.5,1.7c1.6-0.2,3.1-1.2,3.8-2.7c0.9-1.7,2.1-3.3,3.6-4.6c2.3-2.3,4.4-4.7,6.3-7.3c0.5-0.7,0.8-1.6,0.8-2.5
			c0.1-3.2-1.5-5.7-3.3-8.1c-1.9-2.6-4-5.2-2.2-8.8c1.9-3.9,2.8-8.1,2.9-12.4c0-0.2,0-0.3,0-0.5v0c0,0,0-0.1,0-0.1
			c0.2-0.1,0.5-0.1,0.7-0.2c1.4-0.3,2.7-0.7,4-1.1c1.2-0.6,3-1.5,3.9-2c1.5-0.7,2.9-1.7,4.4-2.6c4.3-2.4,10.5-9.3,11.9-11.4
			c2.1-3,2-6.3,1.2-9.9c-0.2-1-0.5-1.9-0.9-2.9c-2.3-5.3-6.9-9.3-12.5-10.9C103.1,0,97.6-0.4,92.1,0.4c-5.3,0.7-8.3,2.7-9.6,5.7
			c-1.7,4,9.1,10.3,10.2,9.1s-7-4.6-7.1-7.3s4.4-3.7,6.5-4.1c5.2-0.9,12.1,0.5,18.8,5.4c13.1,9.6,1.6,18.1-9.6,20.1
			c-1.6,0.3-3.3,0.5-4.9,0.5c-2.4-0.1-7-3.4-7.8-4.3c-7.1-7-13.8-8.4-24-9c-6.4-0.3-12.8,0.7-18.8,2.9c-6.9,2.4-13.4,5.5-19,10.9
			c-5.3,5.1-8.7,11.2-12.2,17.2c-1.7,3.2-4.7,5.4-8.2,6.2c-1.8,0.4-3.5,1-5.1,1.7C-0.4,56.1-0.4,57.2,1.1,58 M82.8,69.4
			c1.9-1.9,3.9-4.9,3.8-8.5s-2.8-6.5-1.8-9.7s8.9-7.4,8.9-7.4c-1.2,2.4-0.4,5.3-0.9,7.1c-0.5,1.7-2.4,2.4-2.5,3.7
			c-0.4,7.1,3.9,9.9,4.5,11.6c0.9,2.3,2.3,3.8,1.8,6.7c-0.1,0.8-0.4,1.6-0.9,2.2c-1.6,2.3-3.3,4.4-5.2,6.5c-1.2,1.2-2.2,2.6-3,4.1
			c-0.6,1.2-1.6,2-2.9,2.3c-0.9,0.2-1.2-0.3-0.9-1.5c0.6-1.7,1.6-3.2,2.9-4.4c0.7-0.9,1.3-2,1.7-3.1c1-2.6,1.1-6.7-0.8-7.7
			C87.1,71,82.6,69.6,82.8,69.4 M75.5,70c1.4-0.7,2.9-4.5,2.7-2.5s5.8-1.5,3.9,0.7c-0.5,0.6-1.1,1.1-1.8,1.5c-2.3,1.2-4.6,2.3-7,3.3
			c-1.5,0.6-2.9,1.3-4.2,2.2c-0.9,0.7-2.1,1-3.3,0.8c-0.7-0.2-0.7-0.7,0.2-1.5c1.3-1.2,2.8-2.2,4.4-2.9c1-0.3,1.9-0.8,2.7-1.4
			C75.3,68.4,74.1,70.7,75.5,70 M35.2,60.6c1.2-2.5,3.1-4.6,4.2-7.1c1-2.2,4.6-2.4,3.5,0.2c-0.8,1.8-0.1,4.3-1.6,7
			c-0.6,1-6.6,4.5-7.9,5.7C33.7,64.4,34.4,62.4,35.2,60.6 M27.5,61.6c0.4-0.9,1.4-1.3,2.3-0.9c0.5,0.2,0.8,0.6,1,1.1
			c0.2,1,0.3,2,0.1,3c-0.1,1-0.2,2.1-0.2,3.2c0,1.8,0.2,3.6,0.6,5.3c0.2,0.4,0.4,0.9,0.6,1.3c0,0,0,0,0,0l0,0.1
			c0.2,0.4,0.1,0.8-0.2,1.1l0,0c-0.1,0.1-0.1,0.1-0.2,0.1h0c-0.4,0.2-0.8,0.1-1.1-0.2c-0.3-0.3-0.5-0.6-0.7-1
			c-0.5-1-0.9-2.1-1.2-3.2c-0.1-0.2-0.1-0.5-0.2-0.7C27.6,68,26.6,64.3,27.5,61.6C27.5,61.6,27.5,61.6,27.5,61.6 M19.2,63.1
			c0.6-0.3,1,0.7,0.4,1c-2.4,1.1-4.2,3.2-4.9,5.7c-0.2,0.7-1.2,0.5-1-0.2C14.4,66.7,16.4,64.3,19.2,63.1 M18.5,68.5
			c-0.1,0-0.2,0.1-0.3,0.1c0,0-0.1,0-0.1,0l0,0l-0.1,0c-0.1,0.1-0.3,0.2-0.4,0.3c-0.1,0-0.1,0.1-0.2,0.1l0,0l-0.1,0.1
			c-0.1,0.1-0.2,0.2-0.3,0.3c-0.1,0.1-0.1,0.2-0.2,0.3l0,0.1c0,0,0,0.1-0.1,0.1c-0.1,0.1-0.1,0.3-0.2,0.4l0,0v0
			c-0.1,0.3-0.3,0.5-0.6,0.4c-0.3-0.1-0.5-0.3-0.4-0.6c0-0.1,0.1-0.2,0.1-0.3c0.5-1.1,1.4-1.9,2.5-2.3c0.3-0.1,0.6,0,0.7,0.3
			C18.9,68.1,18.7,68.4,18.5,68.5 M10.5,62.9c0,0,0.1-0.1,0.1-0.1c0.4-0.3,0.9-0.6,1.4-0.8c0.3-0.1,0.5-0.1,0.8-0.1
			c0.5-0.1,1,0.3,1,0.8c0,0,0,0,0,0c0.1,0.9-0.2,1.8-0.7,2.5c-0.5,0.3-1,0.5-1.6,0.4c-0.6-0.2-1-0.6-1.4-1.1
			C10,64.1,10.3,63.4,10.5,62.9 M5.3,56.1c0.6-0.2,1.2-0.3,1.7-0.4c0,0,0.1,0,0.1,0l0,0c0.1,0,0.2,0,0.3,0c0,0,0.1,0,0.1,0l0,0
			c0,0,0,0,0.1,0c0,0,0,0,0,0s0,0,0,0l0,0c0,0,0,0,0.1,0.1l0,0c0,0,0,0,0,0c0,0,0,0,0,0.1c0,0,0,0,0,0.1s0,0,0,0.1c0,0,0,0.6,0,0.7
			c0,0.2,0,0.3-0.1,0.5c-0.1,0.3-0.4,0.6-0.7,0.5c0,0,0,0,0,0c-0.1,0-0.1,0-0.2,0c-0.5-0.1-1.1-0.3-1.6-0.6C5,57,4.8,56.6,5,56.4
			C5.1,56.2,5.2,56.1,5.3,56.1 M3,56c0.1,0,0.1-0.1,0.2-0.1c-0.6,0.5-0.4,1.2,0.6,1.7c1.1,0.6,2.3,1,3.6,1.5c-0.3,0.8-0.7,1.4,0.3,2
			c0.6,0.4,0.9,1.2,0.7,1.9c-0.1,1,0.2,2,0.8,2.8c1.1,1.5,2,3.3,2.5,5.1c0.2,0.6,0.5,1.1,0.8,1.6c0-0.1,0-0.2,0-0.3
			c0-0.4,0.3-0.7,0.6-0.7c0,0,0,0,0,0c0.7,0,1.3,0.2,1.8,0.7c0.3,0.2,0.4,0.6,0.2,0.9l0.1,0c0.5,0,1-0.2,1.5-0.4
			c1.5-0.9,2.9-1.7,3.5-3.6c0.1-0.2,0.1-0.3,0.2-0.5c0.8-0.6,1.7-0.9,2.7-0.9c-1,1-2.3,1.7-2.7,3c-0.7,2.1-2.1,2.9-3.8,3.8
			c-0.5,0.3-1,0.4-1.6,0.5c-2.3,0.2-2.9-0.2-3.7-2.4c-0.6-2-1.5-3.8-2.7-5.5c-0.7-0.8-1-1.9-0.8-3c0.2-0.8-0.1-1.5-0.7-2
			c-1-0.6-0.6-1.3-0.3-2.1c-1.3-0.6-2.6-1-3.8-1.6C1.6,57.5,1.6,56.6,3,56"/>
		<path id="Path_4630" class="st0" d="M89.9,82c-0.9,0.9-1.7,1.9-2.3,3.1c-0.4,0.9-1.2,1.5-2.2,1.7c-0.7,0.1-0.9-0.3-0.6-1.2
			c0.5-1.2,1.3-2.4,2.2-3.3c0.6-0.7,1-1.5,1.3-2.3c0.2-0.6,1.6,0.1,1.9-2.4c0.1-1.2,3.3-9.1,2.7-5.4s1.6,2.5,1.5,3.3
			C94.4,76.2,91.3,80.5,89.9,82"/>
	</g>
</g>
</svg>
