<svg version="1.1" id="Group_391" xmlns="http://www.w3.org/2000/svg" xmlns:xlink="http://www.w3.org/1999/xlink" x="0px" y="0px"
	 viewBox="0 0 139 69.3" style="enable-background:new 0 0 139 69.3;" xml:space="preserve">
<style type="text/css">
	.st0{fill:#9F7852;}
	.st1{fill:#F2E5C9;}
</style>
<g>
	<g id="Group_390">
		<path id="Path_4637" class="st0" d="M17.1,24.6c14,9.8,25.6,22.1,29.2,25.2c0.5,0.4,0.5,1.2,0.1,1.7c0,0,0,0,0,0
			c-0.4,0.4-0.8,0.8-1.2,1.2c-0.4,0.3-0.9,0.4-1.4,0.1c-3-1.9-9.1-6.1-15.5-10.4c-3.8-2.5-11.7-8.7-15.8-10.8
			C10.7,30.7,15.6,23.6,17.1,24.6"/>
		<path id="Path_4638" class="st0" d="M31.8,10.6c2.1-1.1,4.7-0.3,5.9,1.7C42,19.7,51.3,35.9,53,39.6c0.8,1.8,1.3,3.7,2.2,5.5
			c0.2,0.3,0.1,0.7-0.2,1c-0.4,0.3-1.1,0.7-1.6,1c-0.6,0.3-1.3,0.1-1.6-0.4C49,42.3,30.7,15.1,29.5,13.1c-0.3-0.5-0.1-1.2,0.4-1.5
			c0,0,0,0,0.1,0L31.8,10.6z"/>
		<path id="Path_4639" class="st0" d="M4.6,44c0.2-0.9,1.2-1.4,2-1.1c0.1,0,0.2,0.1,0.4,0.2c5.1,2.9,7.6,3.2,13.4,6.5
			c6.3,3.6,12.5,4.1,18.6,8.3c0.3,0.2,1.1,0.5,0.8,1.4s-0.7,2-1.6,1.7c-4.5-1.5-29.9-7.4-34.4-8.4c-1-0.2-1.6-1.2-1.4-2.2
			c0-0.1,0-0.2,0.1-0.3C3.1,48.5,3.9,46.2,4.6,44"/>
		<path id="Path_4640" class="st0" d="M135.8,50.9L101,62.1c-0.3,0.1-0.7-0.1-0.8-0.4l-0.6-1.5c-0.1-0.4,0-0.8,0.3-0.9L132,43.5
			c0.3-0.2,0.7,0,0.9,0.3l3.4,6c0.2,0.4,0.1,0.8-0.3,1C135.9,50.9,135.9,50.9,135.8,50.9"/>
		<path id="Path_4641" class="st0" d="M36.5,65.8c0.1,0.5,0.1,1.1-0.1,1.6c-0.1,0.3-0.5,0.5-0.8,0.5c-7.9-0.6-31,1.9-34.7,1.4
			c-1.2-0.2-1.4-6.4,0.7-6.3c5,0.6,29,2,34.2,2.3C36.2,65.1,36.5,65.4,36.5,65.8"/>
		<path id="Path_4642" class="st0" d="M125.5,27.8c0.9,1.6,0.8,6.5,3.2,7c0.8,0.2-3.6,2.5-4.2,2.8c-4.6,2.9-23.6,13.7-28.4,16.7
			c-0.2,0.1-0.5,0.1-0.8,0c-0.7-0.6-1.3-1.2-1.9-1.9c-0.3-0.3-0.2-0.7,0-1c0,0,0,0,0,0c4.2-3.5,27.4-20.9,30.9-23.8
			C124.7,27.4,125.2,27.4,125.5,27.8C125.5,27.8,125.5,27.8,125.5,27.8"/>
		<path id="Path_4643" class="st0" d="M138,69.3c-5.8-1-30.4-1.4-34.7-1.5c-0.3,0-0.7-0.2-0.8-0.5l-0.5-1.9
			c-0.1-0.4,0.2-0.8,0.8-0.8l34.4-2.1c0.4-0.1,0.7,0.2,0.9,0.5c0.2,1.2,0.8,3.9,1,5.6C139,69,138.5,69.4,138,69.3"/>
		<path id="Path_4644" class="st0" d="M55,3.2c0-0.3,0.3-0.6,0.6-0.6c2.2-0.1,4.2-3.4,6.1-2.3c0.8,0.5,5.1,39.2,5,41.8
			c0,0.5-0.4,0.9-0.8,1c-0.9,0.2-1.8,0.4-2.7,0.5c-0.6,0.1-1.1-0.3-1.2-0.9c-0.3-2.3-3.1-17.4-4.3-20.8C56.5,18.9,55.1,6.3,55,3.2"
			/>
		<path id="Path_4645" class="st0" d="M113.1,18.3c-6.9,7.5-20,24.6-23.9,29.7c-0.4,0.5-1,0.6-1.5,0.2c-0.6-0.4-1.2-0.8-1.8-1.2
			s-0.6-0.7-0.3-1.2c2.1-4.1,4.6-8,7.3-11.8c6.1-7.9,14.4-16.8,16.3-19.2c0.3-0.4,0.7-0.6,1.2-0.5c0.4,0,0.8,0.1,1,0.1
			c1.3,0.2,2.3,1.3,2.1,2.7C113.6,17.4,113.4,17.9,113.1,18.3"/>
		<path id="Path_4646" class="st0" d="M87.3,1.9l3.9,1.5c1.4,0.5,2,2,1.5,3.4c0,0,0,0.1,0,0.1c-3.6,8.4-13.3,33.4-14.3,36
			c-0.2,0.7-0.9,1-1.6,0.8c0,0,0,0,0,0c-1-0.2-2-0.6-3-0.8c-0.5-0.1-0.8-0.5-0.7-1c0,0,0,0,0,0C73,38.5,84.9,9,86.3,2.5
			c0.1-0.4,0.5-0.7,0.9-0.6C87.2,1.9,87.3,1.9,87.3,1.9"/>
		<path id="Path_4647" class="st1" d="M73.5,48.1c-14.4-2-27.9,7-31.6,21H97C94.1,58,84.8,49.8,73.5,48.1"/>
	</g>
</g>
</svg>
