<svg id="Group_354" data-name="Group 354" xmlns="http://www.w3.org/2000/svg" xmlns:xlink="http://www.w3.org/1999/xlink" width="169.68" height="52.878" viewBox="0 0 169.68 52.878">
  <defs>
    <clipPath id="clip-path">
      <rect id="Rectangle_65" data-name="Rectangle 65" width="169.68" height="52.878" fill="#0a2e3d"/>
    </clipPath>
  </defs>
  <g id="Group_353" data-name="Group 353" clip-path="url(#clip-path)">
    <path id="Path_4502" data-name="Path 4502" d="M4.809,107.669A23.884,23.884,0,0,0,7,112.893a.957.957,0,0,1,.126.472.889.889,0,0,1-.189.613.667.667,0,0,1-.515.273H6.277c-.261-.032-.523-.1-.783-.128a12.845,12.845,0,0,0-1.709-.21H3.7a12.443,12.443,0,0,0-2.744.36.36.36,0,0,1-.173.03.724.724,0,0,1-.521-.231.785.785,0,0,1-.231-.548.367.367,0,0,1,.029-.175,41.109,41.109,0,0,0,1.024-9.5q-.01-2.262-.02-4.525a52.367,52.367,0,0,0-.345-5.657c0-.02,0-.039,0-.059-.109-.8-.243-1.6-.4-2.375-.079-.475-.185-.9-.289-1.321A.353.353,0,0,1,0,89.733a1.459,1.459,0,0,1,.208-.669,1.553,1.553,0,0,1,.467-.538l.078-.056C2.6,87.364,4.6,86.157,6.794,84.778l.615-.385c2.356-1.467,4.552-2.887,6.6-4.351l.082-.046a.451.451,0,0,1,.532.026.8.8,0,0,1,.218.607q.119,3.347.237,6.694a1.657,1.657,0,0,1-.2.845,1.053,1.053,0,0,1-.489.521.468.468,0,0,1-.394.005,5.532,5.532,0,0,0-4.467.081c-.466.19-.93.384-1.365.6a17.618,17.618,0,0,0-2.569,1.583,3.618,3.618,0,0,0-1.014,1.184,3.664,3.664,0,0,0-.493,1.546c-.042.8-.06,1.481-.079,2.037-.018.588-.037,1.206-.028,1.846q0,.288.008.575c0,.287.09.449.228.432a1.414,1.414,0,0,0,.579-.11l.22-.078a4.172,4.172,0,0,0,.607-.181,6.166,6.166,0,0,0,.69-.275,14.466,14.466,0,0,0,1.767-.783,9.353,9.353,0,0,0,1.789-1.187,1.107,1.107,0,0,1,.276-.168.463.463,0,0,1,.508.085.9.9,0,0,1,.244.624c0,.049,0,.1,0,.147-.022.193-.016.413-.034.753s-.008.669,0,1q0,.334-.008.669c-.019.338-.008.7,0,1.108.011.367.021.7.058.984,0,.012,0,.025,0,.037a1.272,1.272,0,0,1-.205.748.889.889,0,0,1-.527.41.5.5,0,0,1-.486-.145,3.34,3.34,0,0,0-1.888-.889,6.1,6.1,0,0,0-2.27.268l-.418.116a1.664,1.664,0,0,0-.773.6,1.584,1.584,0,0,0-.294.915,19.417,19.417,0,0,0,.747,4.439" transform="translate(0 -61.574)" fill="#0a2e3d"/>
    <path id="Path_4503" data-name="Path 4503" d="M87.227,93.955c.071,1.786.259,3.567.5,5.356.029.727-.295,1.309-.7,1.309a46.191,46.191,0,0,0-6.937-.475,49.75,49.75,0,0,0-6.435.468l-.375.042a1.007,1.007,0,0,1-.791-1.052,1.579,1.579,0,0,1,.015-.366,57.748,57.748,0,0,0,1.18-13.082q-.137-3.614-.275-7.228a45.413,45.413,0,0,0-2.136-12.34,1.239,1.239,0,0,1-.04-.31,1.735,1.735,0,0,1,.651-1.463c.055-.029.085,0,.14-.032a16.8,16.8,0,0,0,2.4-.936,13.861,13.861,0,0,0,2.253-1.459l.112-.054c.421-.2.782.21.806.83a1.262,1.262,0,0,1-.016.322,90.927,90.927,0,0,0-1.171,14.545l.473,11.977c.064,1.636,1.007,2.844,2.072,2.749l.489-.047c3.312-.244,6.649-5.217,6.648-5.26a.592.592,0,0,1,.4-.244c.4-.053.772.435.8,1.162q-.011.439-.023.878c-.082,1.565-.105,3.164-.043,4.709" transform="translate(-54.882 -47.983)" fill="#0a2e3d"/>
    <path id="Path_4504" data-name="Path 4504" d="M163.773,49.373c.385,13.555-2.882,24.482-8.456,24.368-5.615-.157-9.589-9.75-10.056-21.45-.464-11.635,2.71-22.7,8.41-24.644,5.715-1.885,9.723,8.242,10.1,21.726m-3.224.522C160.3,41.99,157.9,35.957,154,36.971c-3.925,1.045-5.834,7.631-5.556,14.823.283,7.25,2.653,12.97,6.542,12.781,3.858-.195,5.809-6.712,5.559-14.68" transform="translate(-111.879 -21.126)" fill="#0a2e3d"/>
    <path id="Path_4505" data-name="Path 4505" d="M255.174,1.5a3.245,3.245,0,0,1-.061.541c-1.034,5.77-2.438,11.617-3.075,17.572q-1.844,12.4-3.6,24.762a12.951,12.951,0,0,0-.077,1.5,11.929,11.929,0,0,0,.843,4.489h.029a1.954,1.954,0,0,1,.15.839c0,.719-.253,1.379-.629,1.379l-.232-.06a12.141,12.141,0,0,0-3.248-.476,11.229,11.229,0,0,0-3.411.539c-.434,0-.793-.77-.8-1.6a2,2,0,0,1,.023-.414A45.517,45.517,0,0,0,241.3,45c-.027-2.014-.144-4.086-.253-5.624q-1.227-7.106-2.483-14.135-1.33,9.732-2.608,19.334a12.263,12.263,0,0,0-.06,1.464,11.139,11.139,0,0,0,.923,4.379,2.17,2.17,0,0,1,.19.878c.012.645-.237,1.29-.614,1.291l-.262-.058a12.427,12.427,0,0,0-3.253-.46,11.551,11.551,0,0,0-3.376.525c-.463,0-.829-.741-.851-1.6,0-.114.023-.228.02-.342a31.623,31.623,0,0,0,.171-3.6c-.011-.456,0-.971-.006-1.428a60.81,60.81,0,0,0-1.031-9.594q-1.42-7.341-2.864-14.519c-.8-5.379-2.435-10.435-3.574-15.414-.034-1.164.387-2.1.984-2.245a.6.6,0,0,1,.3-.014,6.308,6.308,0,0,0,2.371-.129,9.963,9.963,0,0,0,3.014-1.122l.09-.017c.451-.087.889.581.907,1.327a3.14,3.14,0,0,1-.048.527,43.218,43.218,0,0,0-1.252,11.282l.02.8a39.536,39.536,0,0,0,.818,6.537c.883,4.344,2.914,14.458,3.7,17.05.094.285.273.452.449.444s.377-.189.455-.6q1.276-8.908,2.6-17.964a51.128,51.128,0,0,0,.457-7.729,18.234,18.234,0,0,0-.392-3.421c-.585-2.4-1.172-4.726-1.672-7.11a5.35,5.35,0,0,1-.075-.75c-.013-.641.155-1.369,1-1.548l.151-.021a1.46,1.46,0,0,0,.335.071,10.871,10.871,0,0,0,2.73.065A8.922,8.922,0,0,0,240,1.168c.18-.08,1.421-.5,1.451-.5.456-.044.8.639.808,1.412a3.27,3.27,0,0,1-.054.54c-.367,2.233-.884,4.416-1.275,6.645a27.8,27.8,0,0,0-.412,5.014q.006.415.011.829a43.023,43.023,0,0,0,.751,6.827c.842,4.564,2.767,15.09,3.521,17.769.09.3.269.472.445.469s.379-.186.463-.605q1.365-9.13,2.782-18.314a44.5,44.5,0,0,0,.588-6.371c0-.419.025-.84.022-1.259a45.023,45.023,0,0,0-1.71-11.489,1.932,1.932,0,0,1-.034-.417c-.006-.778.353-1.516.78-1.538l.092.055A10.082,10.082,0,0,0,251.216.6a9.741,9.741,0,0,0,3.166-.6c.457,0,.792.718.792,1.5" transform="translate(-170.548 0)" fill="#0a2e3d"/>
    <path id="Path_4506" data-name="Path 4506" d="M438.073,43.809a62.737,62.737,0,0,0,1.939,9.546,2.609,2.609,0,0,1,.1.814,2.35,2.35,0,0,1-.224,1.045c-.151.29-.328.464-.531.464h-.145c-.259-.058-.517-.175-.777-.234a8.078,8.078,0,0,0-1.7-.413h-.087a6.511,6.511,0,0,0-2.762.643.212.212,0,0,1-.175.059c-.2,0-.374-.178-.514-.474a2.66,2.66,0,0,1-.216-1.125,1.469,1.469,0,0,1,.034-.355,163.307,163.307,0,0,0,1.36-18.768q.069-4.487.137-8.973c.055-3.6,0-7.506-.184-11.6,0-.039,0-.079,0-.118-.1-1.724-.219-3.511-.374-5.3-.075-1.073-.182-2.091-.288-3.109a1.653,1.653,0,0,1-.024-.418,2.173,2.173,0,0,1,.258-1.04c.156-.28.34-.378.552-.354l.091.01a51.064,51.064,0,0,0,6.912,1.579l.693.111a51.385,51.385,0,0,0,7.342.713l.09.02a.934.934,0,0,1,.555.575,2.364,2.364,0,0,1,.181,1.056q-.134,4.737-.268,9.474a2,2,0,0,1-.267,1.025c-.157.255-.339.394-.546.36a.619.619,0,0,1-.409-.294,8.934,8.934,0,0,0-4.689-3.648,13.471,13.471,0,0,0-1.492-.33,7.984,7.984,0,0,0-2.853.093,1.823,1.823,0,0,0-1.16,1.035,5.493,5.493,0,0,0-.612,2.279c-.086,1.4-.137,2.626-.186,3.619-.049,1.052-.1,2.162-.12,3.334q-.01.527-.019,1.054c-.009.527.073.886.22.956a1.041,1.041,0,0,0,.62.225l.237.019a2.452,2.452,0,0,0,.651.113,3.354,3.354,0,0,0,.742.006,7.9,7.9,0,0,0,1.9-.115,5.328,5.328,0,0,0,1.946-.725.594.594,0,0,1,.3-.082c.207.023.382.157.523.459a2.605,2.605,0,0,1,.21,1.113q0,.114-.006.229c-.037.283-.045.626-.087,1.138s-.055,1.026-.067,1.541q-.027.513-.055,1.027c-.043.512-.056,1.084-.071,1.714-.014.572-.027,1.087-.008,1.547v.057a2.233,2.233,0,0,1-.262,1.069c-.154.275-.363.433-.569.418-.176-.013-.35-.14-.49-.438a6.148,6.148,0,0,0-1.893-2.332,4.686,4.686,0,0,0-2.376-.748l-.443-.029a1.119,1.119,0,0,0-.839.649,3.313,3.313,0,0,0-.352,1.5,66,66,0,0,0,.551,8.342" transform="translate(-333.581 -3.149)" fill="#0a2e3d"/>
    <path id="Path_4507" data-name="Path 4507" d="M526.345,57.2c-.058.748-.126,1.746-.165,2.746q-.019.5-.039,1c-.055,1.4-.047,2.7.024,3.854,0,.05,0,.1-.006.15-.029.748-.4,1.347-.805,1.347h-.116a31.767,31.767,0,0,0-7.176-.918,28.744,28.744,0,0,0-7.356.888h-.116c-.434,0-.731-.724-.708-1.5q0-.139.008-.278c.394-2.555.71-5.321.929-7.752.364-3.367.583-6.729.687-10.159q.127-4.2.255-8.407c.1-3.375.1-7.208-.035-10.635l-.028-.061c-.068-1.686-.167-3.38-.268-5.024-.089-1.025-.179-2.052-.271-2.97,0-.112-.023-.23-.02-.341.025-.835.4-1.418.819-1.316l.09.021a63.145,63.145,0,0,0,7.441,2.668,70.8,70.8,0,0,0,7.014,1.664l.087.031c.407.146.7.814.675,1.566q0,.125-.01.25c-.128,1.023-.231,2.158-.31,3.455q-.015.4-.031.8c-.044,1.155-.068,2.52-.047,3.49,0,.067-.005.134-.008.2-.028.7-.4,1.208-.8,1.1a.953.953,0,0,1-.37-.3,10.271,10.271,0,0,0-4.343-3.54,14.665,14.665,0,0,0-1.431-.47,8.447,8.447,0,0,0-3.162-.216c-.714.054-1.279.971-1.38,2.264-.271,2.843-.377,4.3-.455,6.7,0,.091-.006.181-.009.272-.032.98.353,1.859.878,2,.234.037.467.129.7.166.264.043.529.031.822.079a5.487,5.487,0,0,0,2.682-.18,4.488,4.488,0,0,0,1.168-.628.527.527,0,0,1,.385-.083c.408.08.737.719.708,1.5,0,.052,0,.1-.006.156-.054.669-.121,2.484-.177,3.206-.03.778-.049,2.132-.047,2.862,0,.017,0,.035,0,.052-.03.829-.43,1.349-.866,1.293a.632.632,0,0,1-.4-.262,4.6,4.6,0,0,0-3.611-2.226,13.587,13.587,0,0,0-1.58-.146c-.5-.008-.935.758-.966,1.739q0,.136-.009.272c-.094,2.883-.061,4.579.022,7.415a2.287,2.287,0,0,0,.812,1.9,9.48,9.48,0,0,0,4.088,1.305,7.11,7.11,0,0,0,5.7-2.282.621.621,0,0,1,.444-.214c.406.037.732.619.7,1.367,0,.05,0,.1-.006.15" transform="translate(-392.828 -13.72)" fill="#0a2e3d"/>
    <path id="Path_4508" data-name="Path 4508" d="M605.969,84.738c-.223,6.238-4.559,9.157-8.82,9.236a9.5,9.5,0,0,1-8.2-5.008,2.462,2.462,0,0,1-.295-1.345,2.672,2.672,0,0,1,.371-1.308,22.388,22.388,0,0,0,2.885-4.7l.065-.185a.6.6,0,0,1,.595-.358.831.831,0,0,1,.585.6c.7,2.141,2.183,4.044,4.114,4.208l.058.005a3.466,3.466,0,0,0,3.986-3.655c.229-5.419-11.234-7.949-10.779-20.02.248-6.37,3.555-10.4,7.94-8.308,3.449,1.607,5.486,4.564,7.229,7.215a1.852,1.852,0,0,1,.273,1.007.931.931,0,0,1-.162.552,13.112,13.112,0,0,0-1.954,4.267l-.033.116c-.127.337-.39.5-.644.412a.932.932,0,0,1-.493-.564,8.533,8.533,0,0,0-4.665-4.759l-.085-.031c-1.477-.547-3.552-.2-3.656,2.359-.221,6.236,12.042,10.787,11.68,20.265" transform="translate(-453.519 -41.096)" fill="#0a2e3d"/>
    <path id="Path_4509" data-name="Path 4509" d="M674.072,79.805c2.294,1.522,4.568,2.966,6.816,4.373,2.275,1.424,4.494,2.8,6.652,4.156l.078.056a1.63,1.63,0,0,1,.623,1.142v.087a23.292,23.292,0,0,0-.105,2.366c0,.813.026,1.642.105,2.5V94.6c0,.433-.347.6-.722.408a1.164,1.164,0,0,1-.374-.341,12.722,12.722,0,0,0-3.852-3.348l-.351-.181c-.4-.21-.765.013-.776.552q-.111,5.37-.222,10.74a38.312,38.312,0,0,0,1.426,10.584.915.915,0,0,1,.025.26.841.841,0,0,1-.766.873,1.2,1.2,0,0,0-.144-.034,13.843,13.843,0,0,0-2.22-.32,10.74,10.74,0,0,0-2.438.3,1,1,0,0,0-.146.036.858.858,0,0,1-.753-.957,1.33,1.33,0,0,1,.068-.329,45.614,45.614,0,0,0,1.974-11.135q.15-5.59.3-11.179a1.92,1.92,0,0,0-.9-1.657l-.164-.078a4.533,4.533,0,0,0-4.023-.149.539.539,0,0,1-.424.023,1.474,1.474,0,0,1-.685-1.365q.024-.292.049-.583c.091-.967.181-1.931.216-2.92.039-1.108.022-2.2-.023-3.318.021-.6.368-.891.751-.675" transform="translate(-518.56 -61.43)" fill="#0a2e3d"/>
  </g>
</svg>
