<svg xmlns="http://www.w3.org/2000/svg" xmlns:xlink="http://www.w3.org/1999/xlink" width="1028.611" height="18.655" viewBox="0 0 1028.611 18.655">
  <defs>
    <clipPath id="clip-path">
      <rect id="Rectangle_98" data-name="Rectangle 98" width="12.742" height="18.655" fill="#0a2e3d"/>
    </clipPath>
    <clipPath id="clip-path-9">
      <rect id="Rectangle_99" data-name="Rectangle 99" width="17.407" height="17.89" fill="#0a2e3d"/>
    </clipPath>
    <clipPath id="clip-path-17">
      <rect id="Rectangle_100" data-name="Rectangle 100" width="19.713" height="17.963" fill="#9e7852"/>
    </clipPath>
    <clipPath id="clip-path-25">
      <rect id="Rectangle_101" data-name="Rectangle 101" width="20.582" height="18.324" fill="none"/>
    </clipPath>
  </defs>
  <g id="Group_432" data-name="Group 432" transform="translate(-4865.5 3503.979)">
    <g id="Group_397" data-name="Group 397" transform="translate(4968.394 -3503.979)">
      <g id="Group_396" data-name="Group 396" transform="translate(0 0)" clip-path="url(#clip-path)">
        <path id="Path_4649" data-name="Path 4649" d="M11.718,9.817c.258,0,.514,0,.768,0a.266.266,0,0,0,0-.532c-.174,0-.349-.007-.524-.012A4.8,4.8,0,0,1,7.694,6.5,17.619,17.619,0,0,1,6.8.261a.27.27,0,0,0-.54,0c.005.638-.523,5.248-.995,6.1A5.054,5.054,0,0,1,2.93,8.551a11.991,11.991,0,0,1-2.769.6c-.253.043-.186.438.059.439,1.383.005,3.124.087,4.092,1.232a5.674,5.674,0,0,1,.73,1.25,11.191,11.191,0,0,1,.93,2.47c.158.735.3,3.352.318,3.894a.228.228,0,0,0,.456,0c0-.757.57-5.451,1.26-6.545A3.909,3.909,0,0,1,9.56,10.374a6.866,6.866,0,0,1,2.133-.548.2.2,0,0,0,.025-.009" transform="translate(0 0)" fill="#0a2e3d"/>
      </g>
    </g>
    <g id="Group_419" data-name="Group 419" transform="translate(5490.211 -3503.979)">
      <g id="Group_396-2" data-name="Group 396" transform="translate(0 0)" clip-path="url(#clip-path)">
        <path id="Path_4649-2" data-name="Path 4649" d="M11.718,9.817c.258,0,.514,0,.768,0a.266.266,0,0,0,0-.532c-.174,0-.349-.007-.524-.012A4.8,4.8,0,0,1,7.694,6.5,17.619,17.619,0,0,1,6.8.261a.27.27,0,0,0-.54,0c.005.638-.523,5.248-.995,6.1A5.054,5.054,0,0,1,2.93,8.551a11.991,11.991,0,0,1-2.769.6c-.253.043-.186.438.059.439,1.383.005,3.124.087,4.092,1.232a5.674,5.674,0,0,1,.73,1.25,11.191,11.191,0,0,1,.93,2.47c.158.735.3,3.352.318,3.894a.228.228,0,0,0,.456,0c0-.757.57-5.451,1.26-6.545A3.909,3.909,0,0,1,9.56,10.374a6.866,6.866,0,0,1,2.133-.548.2.2,0,0,0,.025-.009" transform="translate(0 0)" fill="#0a2e3d"/>
      </g>
    </g>
    <g id="Group_411" data-name="Group 411" transform="translate(5229.303 -3503.979)">
      <g id="Group_396-3" data-name="Group 396" transform="translate(0 0)" clip-path="url(#clip-path)">
        <path id="Path_4649-3" data-name="Path 4649" d="M11.718,9.817c.258,0,.514,0,.768,0a.266.266,0,0,0,0-.532c-.174,0-.349-.007-.524-.012A4.8,4.8,0,0,1,7.694,6.5,17.619,17.619,0,0,1,6.8.261a.27.27,0,0,0-.54,0c.005.638-.523,5.248-.995,6.1A5.054,5.054,0,0,1,2.93,8.551a11.991,11.991,0,0,1-2.769.6c-.253.043-.186.438.059.439,1.383.005,3.124.087,4.092,1.232a5.674,5.674,0,0,1,.73,1.25,11.191,11.191,0,0,1,.93,2.47c.158.735.3,3.352.318,3.894a.228.228,0,0,0,.456,0c0-.757.57-5.451,1.26-6.545A3.909,3.909,0,0,1,9.56,10.374a6.866,6.866,0,0,1,2.133-.548.2.2,0,0,0,.025-.009" transform="translate(0 0)" fill="#0a2e3d"/>
      </g>
    </g>
    <g id="Group_427" data-name="Group 427" transform="translate(5751.12 -3503.979)">
      <g id="Group_396-4" data-name="Group 396" transform="translate(0 0)" clip-path="url(#clip-path)">
        <path id="Path_4649-4" data-name="Path 4649" d="M11.718,9.817c.258,0,.514,0,.768,0a.266.266,0,0,0,0-.532c-.174,0-.349-.007-.524-.012A4.8,4.8,0,0,1,7.694,6.5,17.619,17.619,0,0,1,6.8.261a.27.27,0,0,0-.54,0c.005.638-.523,5.248-.995,6.1A5.054,5.054,0,0,1,2.93,8.551a11.991,11.991,0,0,1-2.769.6c-.253.043-.186.438.059.439,1.383.005,3.124.087,4.092,1.232a5.674,5.674,0,0,1,.73,1.25,11.191,11.191,0,0,1,.93,2.47c.158.735.3,3.352.318,3.894a.228.228,0,0,0,.456,0c0-.757.57-5.451,1.26-6.545A3.909,3.909,0,0,1,9.56,10.374a6.866,6.866,0,0,1,2.133-.548.2.2,0,0,0,.025-.009" transform="translate(0 0)" fill="#0a2e3d"/>
      </g>
    </g>
    <g id="Group_407" data-name="Group 407" transform="translate(5098.644 -3503.979)">
      <g id="Group_396-5" data-name="Group 396" transform="translate(0 0)" clip-path="url(#clip-path)">
        <path id="Path_4649-5" data-name="Path 4649" d="M11.718,9.817c.258,0,.514,0,.768,0a.266.266,0,0,0,0-.532c-.174,0-.349-.007-.524-.012A4.8,4.8,0,0,1,7.694,6.5,17.619,17.619,0,0,1,6.8.261a.27.27,0,0,0-.54,0c.005.638-.523,5.248-.995,6.1A5.054,5.054,0,0,1,2.93,8.551a11.991,11.991,0,0,1-2.769.6c-.253.043-.186.438.059.439,1.383.005,3.124.087,4.092,1.232a5.674,5.674,0,0,1,.73,1.25,11.191,11.191,0,0,1,.93,2.47c.158.735.3,3.352.318,3.894a.228.228,0,0,0,.456,0c0-.757.57-5.451,1.26-6.545A3.909,3.909,0,0,1,9.56,10.374a6.866,6.866,0,0,1,2.133-.548.2.2,0,0,0,.025-.009" transform="translate(0 0)" fill="#0a2e3d"/>
      </g>
    </g>
    <g id="Group_423" data-name="Group 423" transform="translate(5620.461 -3503.979)">
      <g id="Group_396-6" data-name="Group 396" transform="translate(0 0)" clip-path="url(#clip-path)">
        <path id="Path_4649-6" data-name="Path 4649" d="M11.718,9.817c.258,0,.514,0,.768,0a.266.266,0,0,0,0-.532c-.174,0-.349-.007-.524-.012A4.8,4.8,0,0,1,7.694,6.5,17.619,17.619,0,0,1,6.8.261a.27.27,0,0,0-.54,0c.005.638-.523,5.248-.995,6.1A5.054,5.054,0,0,1,2.93,8.551a11.991,11.991,0,0,1-2.769.6c-.253.043-.186.438.059.439,1.383.005,3.124.087,4.092,1.232a5.674,5.674,0,0,1,.73,1.25,11.191,11.191,0,0,1,.93,2.47c.158.735.3,3.352.318,3.894a.228.228,0,0,0,.456,0c0-.757.57-5.451,1.26-6.545A3.909,3.909,0,0,1,9.56,10.374a6.866,6.866,0,0,1,2.133-.548.2.2,0,0,0,.025-.009" transform="translate(0 0)" fill="#0a2e3d"/>
      </g>
    </g>
    <g id="Group_415" data-name="Group 415" transform="translate(5359.553 -3503.979)">
      <g id="Group_396-7" data-name="Group 396" transform="translate(0 0)" clip-path="url(#clip-path)">
        <path id="Path_4649-7" data-name="Path 4649" d="M11.718,9.817c.258,0,.514,0,.768,0a.266.266,0,0,0,0-.532c-.174,0-.349-.007-.524-.012A4.8,4.8,0,0,1,7.694,6.5,17.619,17.619,0,0,1,6.8.261a.27.27,0,0,0-.54,0c.005.638-.523,5.248-.995,6.1A5.054,5.054,0,0,1,2.93,8.551a11.991,11.991,0,0,1-2.769.6c-.253.043-.186.438.059.439,1.383.005,3.124.087,4.092,1.232a5.674,5.674,0,0,1,.73,1.25,11.191,11.191,0,0,1,.93,2.47c.158.735.3,3.352.318,3.894a.228.228,0,0,0,.456,0c0-.757.57-5.451,1.26-6.545A3.909,3.909,0,0,1,9.56,10.374a6.866,6.866,0,0,1,2.133-.548.2.2,0,0,0,.025-.009" transform="translate(0 0)" fill="#0a2e3d"/>
      </g>
    </g>
    <g id="Group_431" data-name="Group 431" transform="translate(5881.369 -3503.979)">
      <g id="Group_396-8" data-name="Group 396" transform="translate(0 0)" clip-path="url(#clip-path)">
        <path id="Path_4649-8" data-name="Path 4649" d="M11.718,9.817c.258,0,.514,0,.768,0a.266.266,0,0,0,0-.532c-.174,0-.349-.007-.524-.012A4.8,4.8,0,0,1,7.694,6.5,17.619,17.619,0,0,1,6.8.261a.27.27,0,0,0-.54,0c.005.638-.523,5.248-.995,6.1A5.054,5.054,0,0,1,2.93,8.551a11.991,11.991,0,0,1-2.769.6c-.253.043-.186.438.059.439,1.383.005,3.124.087,4.092,1.232a5.674,5.674,0,0,1,.73,1.25,11.191,11.191,0,0,1,.93,2.47c.158.735.3,3.352.318,3.894a.228.228,0,0,0,.456,0c0-.757.57-5.451,1.26-6.545A3.909,3.909,0,0,1,9.56,10.374a6.866,6.866,0,0,1,2.133-.548.2.2,0,0,0,.025-.009" transform="translate(0 0)" fill="#0a2e3d"/>
      </g>
    </g>
    <g id="Group_399" data-name="Group 399" transform="translate(4901.023 -3503.57)">
      <g id="Group_398" data-name="Group 398" transform="translate(0 0)" clip-path="url(#clip-path-9)">
        <path id="Path_4650" data-name="Path 4650" d="M17.329,11.9,14.367,8.323a.343.343,0,0,1,.028-.466l2.854-2.692A.34.34,0,0,0,17,4.578l-4.535.216a.345.345,0,0,1-.354-.308L11.762.921a.34.34,0,0,0-.6-.179l-2.017,2.5a.34.34,0,0,1-.549-.029L6.608.155a.339.339,0,0,0-.623.16c-.118,1.64-.214,2.976-.309,4.305a.339.339,0,0,1-.291.311L.293,5.645a.34.34,0,0,0-.136.623L3.635,8.477a.339.339,0,0,1,.077.506L1.577,11.489a.34.34,0,0,0,.293.559l2.68-.282a.34.34,0,0,1,.375.338v5.448a.34.34,0,0,0,.587.232L9.05,14.037a.339.339,0,0,1,.538.06l1.785,3.011a.34.34,0,0,0,.628-.12l.722-4.506a.342.342,0,0,1,.359-.285l3.964.26a.34.34,0,0,0,.283-.555" transform="translate(0 0)" fill="#0a2e3d"/>
      </g>
    </g>
    <g id="Group_416" data-name="Group 416" transform="translate(5422.84 -3503.57)">
      <g id="Group_398-2" data-name="Group 398" transform="translate(0 0)" clip-path="url(#clip-path-9)">
        <path id="Path_4650-2" data-name="Path 4650" d="M17.329,11.9,14.367,8.323a.343.343,0,0,1,.028-.466l2.854-2.692A.34.34,0,0,0,17,4.578l-4.535.216a.345.345,0,0,1-.354-.308L11.762.921a.34.34,0,0,0-.6-.179l-2.017,2.5a.34.34,0,0,1-.549-.029L6.608.155a.339.339,0,0,0-.623.16c-.118,1.64-.214,2.976-.309,4.305a.339.339,0,0,1-.291.311L.293,5.645a.34.34,0,0,0-.136.623L3.635,8.477a.339.339,0,0,1,.077.506L1.577,11.489a.34.34,0,0,0,.293.559l2.68-.282a.34.34,0,0,1,.375.338v5.448a.34.34,0,0,0,.587.232L9.05,14.037a.339.339,0,0,1,.538.06l1.785,3.011a.34.34,0,0,0,.628-.12l.722-4.506a.342.342,0,0,1,.359-.285l3.964.26a.34.34,0,0,0,.283-.555" transform="translate(0 0)" fill="#0a2e3d"/>
      </g>
    </g>
    <g id="Group_409" data-name="Group 409" transform="translate(5161.932 -3503.57)">
      <g id="Group_398-3" data-name="Group 398" transform="translate(0 0)" clip-path="url(#clip-path-9)">
        <path id="Path_4650-3" data-name="Path 4650" d="M17.329,11.9,14.367,8.323a.343.343,0,0,1,.028-.466l2.854-2.692A.34.34,0,0,0,17,4.578l-4.535.216a.345.345,0,0,1-.354-.308L11.762.921a.34.34,0,0,0-.6-.179l-2.017,2.5a.34.34,0,0,1-.549-.029L6.608.155a.339.339,0,0,0-.623.16c-.118,1.64-.214,2.976-.309,4.305a.339.339,0,0,1-.291.311L.293,5.645a.34.34,0,0,0-.136.623L3.635,8.477a.339.339,0,0,1,.077.506L1.577,11.489a.34.34,0,0,0,.293.559l2.68-.282a.34.34,0,0,1,.375.338v5.448a.34.34,0,0,0,.587.232L9.05,14.037a.339.339,0,0,1,.538.06l1.785,3.011a.34.34,0,0,0,.628-.12l.722-4.506a.342.342,0,0,1,.359-.285l3.964.26a.34.34,0,0,0,.283-.555" transform="translate(0 0)" fill="#0a2e3d"/>
      </g>
    </g>
    <g id="Group_424" data-name="Group 424" transform="translate(5683.748 -3503.57)">
      <g id="Group_398-4" data-name="Group 398" transform="translate(0 0)" clip-path="url(#clip-path-9)">
        <path id="Path_4650-4" data-name="Path 4650" d="M17.329,11.9,14.367,8.323a.343.343,0,0,1,.028-.466l2.854-2.692A.34.34,0,0,0,17,4.578l-4.535.216a.345.345,0,0,1-.354-.308L11.762.921a.34.34,0,0,0-.6-.179l-2.017,2.5a.34.34,0,0,1-.549-.029L6.608.155a.339.339,0,0,0-.623.16c-.118,1.64-.214,2.976-.309,4.305a.339.339,0,0,1-.291.311L.293,5.645a.34.34,0,0,0-.136.623L3.635,8.477a.339.339,0,0,1,.077.506L1.577,11.489a.34.34,0,0,0,.293.559l2.68-.282a.34.34,0,0,1,.375.338v5.448a.34.34,0,0,0,.587.232L9.05,14.037a.339.339,0,0,1,.538.06l1.785,3.011a.34.34,0,0,0,.628-.12l.722-4.506a.342.342,0,0,1,.359-.285l3.964.26a.34.34,0,0,0,.283-.555" transform="translate(0 0)" fill="#0a2e3d"/>
      </g>
    </g>
    <g id="Group_405" data-name="Group 405" transform="translate(5031.682 -3503.57)">
      <g id="Group_398-5" data-name="Group 398" transform="translate(0 0)" clip-path="url(#clip-path-9)">
        <path id="Path_4650-5" data-name="Path 4650" d="M17.329,11.9,14.367,8.323a.343.343,0,0,1,.028-.466l2.854-2.692A.34.34,0,0,0,17,4.578l-4.535.216a.345.345,0,0,1-.354-.308L11.762.921a.34.34,0,0,0-.6-.179l-2.017,2.5a.34.34,0,0,1-.549-.029L6.608.155a.339.339,0,0,0-.623.16c-.118,1.64-.214,2.976-.309,4.305a.339.339,0,0,1-.291.311L.293,5.645a.34.34,0,0,0-.136.623L3.635,8.477a.339.339,0,0,1,.077.506L1.577,11.489a.34.34,0,0,0,.293.559l2.68-.282a.34.34,0,0,1,.375.338v5.448a.34.34,0,0,0,.587.232L9.05,14.037a.339.339,0,0,1,.538.06l1.785,3.011a.34.34,0,0,0,.628-.12l.722-4.506a.342.342,0,0,1,.359-.285l3.964.26a.34.34,0,0,0,.283-.555" transform="translate(0 0)" fill="#0a2e3d"/>
      </g>
    </g>
    <g id="Group_421" data-name="Group 421" transform="translate(5553.498 -3503.57)">
      <g id="Group_398-6" data-name="Group 398" transform="translate(0 0)" clip-path="url(#clip-path-9)">
        <path id="Path_4650-6" data-name="Path 4650" d="M17.329,11.9,14.367,8.323a.343.343,0,0,1,.028-.466l2.854-2.692A.34.34,0,0,0,17,4.578l-4.535.216a.345.345,0,0,1-.354-.308L11.762.921a.34.34,0,0,0-.6-.179l-2.017,2.5a.34.34,0,0,1-.549-.029L6.608.155a.339.339,0,0,0-.623.16c-.118,1.64-.214,2.976-.309,4.305a.339.339,0,0,1-.291.311L.293,5.645a.34.34,0,0,0-.136.623L3.635,8.477a.339.339,0,0,1,.077.506L1.577,11.489a.34.34,0,0,0,.293.559l2.68-.282a.34.34,0,0,1,.375.338v5.448a.34.34,0,0,0,.587.232L9.05,14.037a.339.339,0,0,1,.538.06l1.785,3.011a.34.34,0,0,0,.628-.12l.722-4.506a.342.342,0,0,1,.359-.285l3.964.26a.34.34,0,0,0,.283-.555" transform="translate(0 0)" fill="#0a2e3d"/>
      </g>
    </g>
    <g id="Group_413" data-name="Group 413" transform="translate(5292.59 -3503.57)">
      <g id="Group_398-7" data-name="Group 398" transform="translate(0 0)" clip-path="url(#clip-path-9)">
        <path id="Path_4650-7" data-name="Path 4650" d="M17.329,11.9,14.367,8.323a.343.343,0,0,1,.028-.466l2.854-2.692A.34.34,0,0,0,17,4.578l-4.535.216a.345.345,0,0,1-.354-.308L11.762.921a.34.34,0,0,0-.6-.179l-2.017,2.5a.34.34,0,0,1-.549-.029L6.608.155a.339.339,0,0,0-.623.16c-.118,1.64-.214,2.976-.309,4.305a.339.339,0,0,1-.291.311L.293,5.645a.34.34,0,0,0-.136.623L3.635,8.477a.339.339,0,0,1,.077.506L1.577,11.489a.34.34,0,0,0,.293.559l2.68-.282a.34.34,0,0,1,.375.338v5.448a.34.34,0,0,0,.587.232L9.05,14.037a.339.339,0,0,1,.538.06l1.785,3.011a.34.34,0,0,0,.628-.12l.722-4.506a.342.342,0,0,1,.359-.285l3.964.26a.34.34,0,0,0,.283-.555" transform="translate(0 0)" fill="#0a2e3d"/>
      </g>
    </g>
    <g id="Group_429" data-name="Group 429" transform="translate(5814.407 -3503.57)">
      <g id="Group_398-8" data-name="Group 398" transform="translate(0 0)" clip-path="url(#clip-path-9)">
        <path id="Path_4650-8" data-name="Path 4650" d="M17.329,11.9,14.367,8.323a.343.343,0,0,1,.028-.466l2.854-2.692A.34.34,0,0,0,17,4.578l-4.535.216a.345.345,0,0,1-.354-.308L11.762.921a.34.34,0,0,0-.6-.179l-2.017,2.5a.34.34,0,0,1-.549-.029L6.608.155a.339.339,0,0,0-.623.16c-.118,1.64-.214,2.976-.309,4.305a.339.339,0,0,1-.291.311L.293,5.645a.34.34,0,0,0-.136.623L3.635,8.477a.339.339,0,0,1,.077.506L1.577,11.489a.34.34,0,0,0,.293.559l2.68-.282a.34.34,0,0,1,.375.338v5.448a.34.34,0,0,0,.587.232L9.05,14.037a.339.339,0,0,1,.538.06l1.785,3.011a.34.34,0,0,0,.628-.12l.722-4.506a.342.342,0,0,1,.359-.285l3.964.26a.34.34,0,0,0,.283-.555" transform="translate(0 0)" fill="#0a2e3d"/>
      </g>
    </g>
    <g id="Group_401" data-name="Group 401" transform="translate(4933.688 -3503.979)">
      <g id="Group_400" data-name="Group 400" transform="translate(0 0)" clip-path="url(#clip-path-17)">
        <path id="Path_4651" data-name="Path 4651" d="M7.3,12.12l-.049.018c-.311,1.8-.623,3.61-.962,5.574a.214.214,0,0,0,.376.172l3.4-4.168a.214.214,0,0,1,.3-.034l5.323,4.1a.214.214,0,0,0,.323-.262l-2.6-5.428a.213.213,0,0,1,.223-.3l5.83.826a.214.214,0,0,0,.127-.4L14.12,9.43a.212.212,0,0,1-.019-.368A47.008,47.008,0,0,0,18.87,5.321a.212.212,0,0,0-.2-.364L12.74,6.572a.21.21,0,0,1-.265-.215c.093-1.7.189-3.449.335-6.131a.213.213,0,0,0-.4-.115L9.25,5.834a.213.213,0,0,1-.351.034L6.508,2.991a.214.214,0,0,0-.374.18L7,7.294a.214.214,0,0,1-.285.245L.29,5.1a.214.214,0,0,0-.209.367l5.84,4.685a.212.212,0,0,1,.011.322,50.664,50.664,0,0,0-3.671,3.946.212.212,0,0,0,.263.325C3.8,14.042,6,12.837,7.3,12.12" transform="translate(0 0)" fill="#9e7852"/>
      </g>
    </g>
    <g id="Group_418" data-name="Group 418" transform="translate(5455.504 -3503.979)">
      <g id="Group_400-2" data-name="Group 400" transform="translate(0 0)" clip-path="url(#clip-path-17)">
        <path id="Path_4651-2" data-name="Path 4651" d="M7.3,12.12l-.049.018c-.311,1.8-.623,3.61-.962,5.574a.214.214,0,0,0,.376.172l3.4-4.168a.214.214,0,0,1,.3-.034l5.323,4.1a.214.214,0,0,0,.323-.262l-2.6-5.428a.213.213,0,0,1,.223-.3l5.83.826a.214.214,0,0,0,.127-.4L14.12,9.43a.212.212,0,0,1-.019-.368A47.008,47.008,0,0,0,18.87,5.321a.212.212,0,0,0-.2-.364L12.74,6.572a.21.21,0,0,1-.265-.215c.093-1.7.189-3.449.335-6.131a.213.213,0,0,0-.4-.115L9.25,5.834a.213.213,0,0,1-.351.034L6.508,2.991a.214.214,0,0,0-.374.18L7,7.294a.214.214,0,0,1-.285.245L.29,5.1a.214.214,0,0,0-.209.367l5.84,4.685a.212.212,0,0,1,.011.322,50.664,50.664,0,0,0-3.671,3.946.212.212,0,0,0,.263.325C3.8,14.042,6,12.837,7.3,12.12" transform="translate(0 0)" fill="#9e7852"/>
      </g>
    </g>
    <g id="Group_410" data-name="Group 410" transform="translate(5194.597 -3503.979)">
      <g id="Group_400-3" data-name="Group 400" transform="translate(0 0)" clip-path="url(#clip-path-17)">
        <path id="Path_4651-3" data-name="Path 4651" d="M7.3,12.12l-.049.018c-.311,1.8-.623,3.61-.962,5.574a.214.214,0,0,0,.376.172l3.4-4.168a.214.214,0,0,1,.3-.034l5.323,4.1a.214.214,0,0,0,.323-.262l-2.6-5.428a.213.213,0,0,1,.223-.3l5.83.826a.214.214,0,0,0,.127-.4L14.12,9.43a.212.212,0,0,1-.019-.368A47.008,47.008,0,0,0,18.87,5.321a.212.212,0,0,0-.2-.364L12.74,6.572a.21.21,0,0,1-.265-.215c.093-1.7.189-3.449.335-6.131a.213.213,0,0,0-.4-.115L9.25,5.834a.213.213,0,0,1-.351.034L6.508,2.991a.214.214,0,0,0-.374.18L7,7.294a.214.214,0,0,1-.285.245L.29,5.1a.214.214,0,0,0-.209.367l5.84,4.685a.212.212,0,0,1,.011.322,50.664,50.664,0,0,0-3.671,3.946.212.212,0,0,0,.263.325C3.8,14.042,6,12.837,7.3,12.12" transform="translate(0 0)" fill="#9e7852"/>
      </g>
    </g>
    <g id="Group_425" data-name="Group 425" transform="translate(5716.413 -3503.979)">
      <g id="Group_400-4" data-name="Group 400" transform="translate(0 0)" clip-path="url(#clip-path-17)">
        <path id="Path_4651-4" data-name="Path 4651" d="M7.3,12.12l-.049.018c-.311,1.8-.623,3.61-.962,5.574a.214.214,0,0,0,.376.172l3.4-4.168a.214.214,0,0,1,.3-.034l5.323,4.1a.214.214,0,0,0,.323-.262l-2.6-5.428a.213.213,0,0,1,.223-.3l5.83.826a.214.214,0,0,0,.127-.4L14.12,9.43a.212.212,0,0,1-.019-.368A47.008,47.008,0,0,0,18.87,5.321a.212.212,0,0,0-.2-.364L12.74,6.572a.21.21,0,0,1-.265-.215c.093-1.7.189-3.449.335-6.131a.213.213,0,0,0-.4-.115L9.25,5.834a.213.213,0,0,1-.351.034L6.508,2.991a.214.214,0,0,0-.374.18L7,7.294a.214.214,0,0,1-.285.245L.29,5.1a.214.214,0,0,0-.209.367l5.84,4.685a.212.212,0,0,1,.011.322,50.664,50.664,0,0,0-3.671,3.946.212.212,0,0,0,.263.325C3.8,14.042,6,12.837,7.3,12.12" transform="translate(0 0)" fill="#9e7852"/>
      </g>
    </g>
    <g id="Group_406" data-name="Group 406" transform="translate(5063.938 -3503.979)">
      <g id="Group_400-5" data-name="Group 400" transform="translate(0 0)" clip-path="url(#clip-path-17)">
        <path id="Path_4651-5" data-name="Path 4651" d="M7.3,12.12l-.049.018c-.311,1.8-.623,3.61-.962,5.574a.214.214,0,0,0,.376.172l3.4-4.168a.214.214,0,0,1,.3-.034l5.323,4.1a.214.214,0,0,0,.323-.262l-2.6-5.428a.213.213,0,0,1,.223-.3l5.83.826a.214.214,0,0,0,.127-.4L14.12,9.43a.212.212,0,0,1-.019-.368A47.008,47.008,0,0,0,18.87,5.321a.212.212,0,0,0-.2-.364L12.74,6.572a.21.21,0,0,1-.265-.215c.093-1.7.189-3.449.335-6.131a.213.213,0,0,0-.4-.115L9.25,5.834a.213.213,0,0,1-.351.034L6.508,2.991a.214.214,0,0,0-.374.18L7,7.294a.214.214,0,0,1-.285.245L.29,5.1a.214.214,0,0,0-.209.367l5.84,4.685a.212.212,0,0,1,.011.322,50.664,50.664,0,0,0-3.671,3.946.212.212,0,0,0,.263.325C3.8,14.042,6,12.837,7.3,12.12" transform="translate(0 0)" fill="#9e7852"/>
      </g>
    </g>
    <g id="Group_422" data-name="Group 422" transform="translate(5585.754 -3503.979)">
      <g id="Group_400-6" data-name="Group 400" transform="translate(0 0)" clip-path="url(#clip-path-17)">
        <path id="Path_4651-6" data-name="Path 4651" d="M7.3,12.12l-.049.018c-.311,1.8-.623,3.61-.962,5.574a.214.214,0,0,0,.376.172l3.4-4.168a.214.214,0,0,1,.3-.034l5.323,4.1a.214.214,0,0,0,.323-.262l-2.6-5.428a.213.213,0,0,1,.223-.3l5.83.826a.214.214,0,0,0,.127-.4L14.12,9.43a.212.212,0,0,1-.019-.368A47.008,47.008,0,0,0,18.87,5.321a.212.212,0,0,0-.2-.364L12.74,6.572a.21.21,0,0,1-.265-.215c.093-1.7.189-3.449.335-6.131a.213.213,0,0,0-.4-.115L9.25,5.834a.213.213,0,0,1-.351.034L6.508,2.991a.214.214,0,0,0-.374.18L7,7.294a.214.214,0,0,1-.285.245L.29,5.1a.214.214,0,0,0-.209.367l5.84,4.685a.212.212,0,0,1,.011.322,50.664,50.664,0,0,0-3.671,3.946.212.212,0,0,0,.263.325C3.8,14.042,6,12.837,7.3,12.12" transform="translate(0 0)" fill="#9e7852"/>
      </g>
    </g>
    <g id="Group_414" data-name="Group 414" transform="translate(5324.846 -3503.979)">
      <g id="Group_400-7" data-name="Group 400" transform="translate(0 0)" clip-path="url(#clip-path-17)">
        <path id="Path_4651-7" data-name="Path 4651" d="M7.3,12.12l-.049.018c-.311,1.8-.623,3.61-.962,5.574a.214.214,0,0,0,.376.172l3.4-4.168a.214.214,0,0,1,.3-.034l5.323,4.1a.214.214,0,0,0,.323-.262l-2.6-5.428a.213.213,0,0,1,.223-.3l5.83.826a.214.214,0,0,0,.127-.4L14.12,9.43a.212.212,0,0,1-.019-.368A47.008,47.008,0,0,0,18.87,5.321a.212.212,0,0,0-.2-.364L12.74,6.572a.21.21,0,0,1-.265-.215c.093-1.7.189-3.449.335-6.131a.213.213,0,0,0-.4-.115L9.25,5.834a.213.213,0,0,1-.351.034L6.508,2.991a.214.214,0,0,0-.374.18L7,7.294a.214.214,0,0,1-.285.245L.29,5.1a.214.214,0,0,0-.209.367l5.84,4.685a.212.212,0,0,1,.011.322,50.664,50.664,0,0,0-3.671,3.946.212.212,0,0,0,.263.325C3.8,14.042,6,12.837,7.3,12.12" transform="translate(0 0)" fill="#9e7852"/>
      </g>
    </g>
    <g id="Group_430" data-name="Group 430" transform="translate(5846.663 -3503.979)">
      <g id="Group_400-8" data-name="Group 400" transform="translate(0 0)" clip-path="url(#clip-path-17)">
        <path id="Path_4651-8" data-name="Path 4651" d="M7.3,12.12l-.049.018c-.311,1.8-.623,3.61-.962,5.574a.214.214,0,0,0,.376.172l3.4-4.168a.214.214,0,0,1,.3-.034l5.323,4.1a.214.214,0,0,0,.323-.262l-2.6-5.428a.213.213,0,0,1,.223-.3l5.83.826a.214.214,0,0,0,.127-.4L14.12,9.43a.212.212,0,0,1-.019-.368A47.008,47.008,0,0,0,18.87,5.321a.212.212,0,0,0-.2-.364L12.74,6.572a.21.21,0,0,1-.265-.215c.093-1.7.189-3.449.335-6.131a.213.213,0,0,0-.4-.115L9.25,5.834a.213.213,0,0,1-.351.034L6.508,2.991a.214.214,0,0,0-.374.18L7,7.294a.214.214,0,0,1-.285.245L.29,5.1a.214.214,0,0,0-.209.367l5.84,4.685a.212.212,0,0,1,.011.322,50.664,50.664,0,0,0-3.671,3.946.212.212,0,0,0,.263.325C3.8,14.042,6,12.837,7.3,12.12" transform="translate(0 0)" fill="#9e7852"/>
      </g>
    </g>
    <g id="Group_403" data-name="Group 403" transform="translate(4865.5 -3503.979)">
      <g id="Group_402" data-name="Group 402" transform="translate(0 0)" clip-path="url(#clip-path-25)">
        <path id="Path_4652" data-name="Path 4652" d="M12.957.2a36.133,36.133,0,0,0-1.949,4.2c-.189.537-.229,1.348-.944,1.356C9.044,5.77,8.642,4.8,8.222,4.048Q7.426,2.61,6.574,1.2a.436.436,0,0,0-.79.369Q6.295,2.91,6.854,4.229c.235.555.62,1.138.436,1.753C6.9,7.3,5.458,6.679,4.555,6.4,3.213,6,1.876,5.571.51,5.254c-.365-.085-.734.417-.34.648A43.587,43.587,0,0,0,4.749,8.151c.67.294,1.778.654,1.447,1.612-.285.826-1.331,1.189-2.022,1.578q-1.194.672-2.367,1.383a.436.436,0,0,0,.369.79q1.661-.635,3.293-1.344c.815-.353,1.782-.764,2.308.287a3.4,3.4,0,0,1-.151,2.37q-.4,1.4-.741,2.816a.436.436,0,0,0,.819.3q.624-1.4,1.194-2.816c.241-.6.6-1.444,1.327-1.59a1.068,1.068,0,0,1,.82.216,2.5,2.5,0,0,1,.574.651c.83,1.247,1.594,2.54,2.431,3.787.231.343.671-.027.562-.356-.238-.72-.4-1.452-.667-2.163-.387-1.02-1.232-2.134-.69-3.225a1.34,1.34,0,0,1,.545-.626,1.7,1.7,0,0,1,1.23.035c.723.206,1.395.478,2.106.708.906.293,1.838.5,2.767.708a.515.515,0,0,0,.352-.967c-1.671-.75-4.107-1.176-5.34-2.609a1.565,1.565,0,0,1-.324-.538c-.327-1.045.719-1.648,1.441-2.081.946-.567,1.843-1.212,2.759-1.828.343-.231-.028-.671-.356-.562-.72.239-1.451.4-2.163.667-1,.381-3.36,2.037-3.735.133a6.144,6.144,0,0,1,.525-2.36c.215-.921.364-1.856.546-2.783.079-.4-.5-.448-.65-.141" transform="translate(0 0)" fill="#c7a666"/>
      </g>
    </g>
    <g id="Group_417" data-name="Group 417" transform="translate(5387.317 -3503.979)">
      <g id="Group_402-2" data-name="Group 402" transform="translate(0 0)" clip-path="url(#clip-path-25)">
        <path id="Path_4652-2" data-name="Path 4652" d="M12.957.2a36.133,36.133,0,0,0-1.949,4.2c-.189.537-.229,1.348-.944,1.356C9.044,5.77,8.642,4.8,8.222,4.048Q7.426,2.61,6.574,1.2a.436.436,0,0,0-.79.369Q6.295,2.91,6.854,4.229c.235.555.62,1.138.436,1.753C6.9,7.3,5.458,6.679,4.555,6.4,3.213,6,1.876,5.571.51,5.254c-.365-.085-.734.417-.34.648A43.587,43.587,0,0,0,4.749,8.151c.67.294,1.778.654,1.447,1.612-.285.826-1.331,1.189-2.022,1.578q-1.194.672-2.367,1.383a.436.436,0,0,0,.369.79q1.661-.635,3.293-1.344c.815-.353,1.782-.764,2.308.287a3.4,3.4,0,0,1-.151,2.37q-.4,1.4-.741,2.816a.436.436,0,0,0,.819.3q.624-1.4,1.194-2.816c.241-.6.6-1.444,1.327-1.59a1.068,1.068,0,0,1,.82.216,2.5,2.5,0,0,1,.574.651c.83,1.247,1.594,2.54,2.431,3.787.231.343.671-.027.562-.356-.238-.72-.4-1.452-.667-2.163-.387-1.02-1.232-2.134-.69-3.225a1.34,1.34,0,0,1,.545-.626,1.7,1.7,0,0,1,1.23.035c.723.206,1.395.478,2.106.708.906.293,1.838.5,2.767.708a.515.515,0,0,0,.352-.967c-1.671-.75-4.107-1.176-5.34-2.609a1.565,1.565,0,0,1-.324-.538c-.327-1.045.719-1.648,1.441-2.081.946-.567,1.843-1.212,2.759-1.828.343-.231-.028-.671-.356-.562-.72.239-1.451.4-2.163.667-1,.381-3.36,2.037-3.735.133a6.144,6.144,0,0,1,.525-2.36c.215-.921.364-1.856.546-2.783.079-.4-.5-.448-.65-.141" transform="translate(0 0)" fill="#c7a666"/>
      </g>
    </g>
    <g id="Group_408" data-name="Group 408" transform="translate(5126.409 -3503.979)">
      <g id="Group_402-3" data-name="Group 402" transform="translate(0 0)" clip-path="url(#clip-path-25)">
        <path id="Path_4652-3" data-name="Path 4652" d="M12.957.2a36.133,36.133,0,0,0-1.949,4.2c-.189.537-.229,1.348-.944,1.356C9.044,5.77,8.642,4.8,8.222,4.048Q7.426,2.61,6.574,1.2a.436.436,0,0,0-.79.369Q6.295,2.91,6.854,4.229c.235.555.62,1.138.436,1.753C6.9,7.3,5.458,6.679,4.555,6.4,3.213,6,1.876,5.571.51,5.254c-.365-.085-.734.417-.34.648A43.587,43.587,0,0,0,4.749,8.151c.67.294,1.778.654,1.447,1.612-.285.826-1.331,1.189-2.022,1.578q-1.194.672-2.367,1.383a.436.436,0,0,0,.369.79q1.661-.635,3.293-1.344c.815-.353,1.782-.764,2.308.287a3.4,3.4,0,0,1-.151,2.37q-.4,1.4-.741,2.816a.436.436,0,0,0,.819.3q.624-1.4,1.194-2.816c.241-.6.6-1.444,1.327-1.59a1.068,1.068,0,0,1,.82.216,2.5,2.5,0,0,1,.574.651c.83,1.247,1.594,2.54,2.431,3.787.231.343.671-.027.562-.356-.238-.72-.4-1.452-.667-2.163-.387-1.02-1.232-2.134-.69-3.225a1.34,1.34,0,0,1,.545-.626,1.7,1.7,0,0,1,1.23.035c.723.206,1.395.478,2.106.708.906.293,1.838.5,2.767.708a.515.515,0,0,0,.352-.967c-1.671-.75-4.107-1.176-5.34-2.609a1.565,1.565,0,0,1-.324-.538c-.327-1.045.719-1.648,1.441-2.081.946-.567,1.843-1.212,2.759-1.828.343-.231-.028-.671-.356-.562-.72.239-1.451.4-2.163.667-1,.381-3.36,2.037-3.735.133a6.144,6.144,0,0,1,.525-2.36c.215-.921.364-1.856.546-2.783.079-.4-.5-.448-.65-.141" transform="translate(0 0)" fill="#c7a666"/>
      </g>
    </g>
    <g id="Group_426" data-name="Group 426" transform="translate(5648.226 -3503.979)">
      <g id="Group_402-4" data-name="Group 402" transform="translate(0 0)" clip-path="url(#clip-path-25)">
        <path id="Path_4652-4" data-name="Path 4652" d="M12.957.2a36.133,36.133,0,0,0-1.949,4.2c-.189.537-.229,1.348-.944,1.356C9.044,5.77,8.642,4.8,8.222,4.048Q7.426,2.61,6.574,1.2a.436.436,0,0,0-.79.369Q6.295,2.91,6.854,4.229c.235.555.62,1.138.436,1.753C6.9,7.3,5.458,6.679,4.555,6.4,3.213,6,1.876,5.571.51,5.254c-.365-.085-.734.417-.34.648A43.587,43.587,0,0,0,4.749,8.151c.67.294,1.778.654,1.447,1.612-.285.826-1.331,1.189-2.022,1.578q-1.194.672-2.367,1.383a.436.436,0,0,0,.369.79q1.661-.635,3.293-1.344c.815-.353,1.782-.764,2.308.287a3.4,3.4,0,0,1-.151,2.37q-.4,1.4-.741,2.816a.436.436,0,0,0,.819.3q.624-1.4,1.194-2.816c.241-.6.6-1.444,1.327-1.59a1.068,1.068,0,0,1,.82.216,2.5,2.5,0,0,1,.574.651c.83,1.247,1.594,2.54,2.431,3.787.231.343.671-.027.562-.356-.238-.72-.4-1.452-.667-2.163-.387-1.02-1.232-2.134-.69-3.225a1.34,1.34,0,0,1,.545-.626,1.7,1.7,0,0,1,1.23.035c.723.206,1.395.478,2.106.708.906.293,1.838.5,2.767.708a.515.515,0,0,0,.352-.967c-1.671-.75-4.107-1.176-5.34-2.609a1.565,1.565,0,0,1-.324-.538c-.327-1.045.719-1.648,1.441-2.081.946-.567,1.843-1.212,2.759-1.828.343-.231-.028-.671-.356-.562-.72.239-1.451.4-2.163.667-1,.381-3.36,2.037-3.735.133a6.144,6.144,0,0,1,.525-2.36c.215-.921.364-1.856.546-2.783.079-.4-.5-.448-.65-.141" transform="translate(0 0)" fill="#c7a666"/>
      </g>
    </g>
    <g id="Group_404" data-name="Group 404" transform="translate(4996.159 -3503.979)">
      <g id="Group_402-5" data-name="Group 402" transform="translate(0 0)" clip-path="url(#clip-path-25)">
        <path id="Path_4652-5" data-name="Path 4652" d="M12.957.2a36.133,36.133,0,0,0-1.949,4.2c-.189.537-.229,1.348-.944,1.356C9.044,5.77,8.642,4.8,8.222,4.048Q7.426,2.61,6.574,1.2a.436.436,0,0,0-.79.369Q6.295,2.91,6.854,4.229c.235.555.62,1.138.436,1.753C6.9,7.3,5.458,6.679,4.555,6.4,3.213,6,1.876,5.571.51,5.254c-.365-.085-.734.417-.34.648A43.587,43.587,0,0,0,4.749,8.151c.67.294,1.778.654,1.447,1.612-.285.826-1.331,1.189-2.022,1.578q-1.194.672-2.367,1.383a.436.436,0,0,0,.369.79q1.661-.635,3.293-1.344c.815-.353,1.782-.764,2.308.287a3.4,3.4,0,0,1-.151,2.37q-.4,1.4-.741,2.816a.436.436,0,0,0,.819.3q.624-1.4,1.194-2.816c.241-.6.6-1.444,1.327-1.59a1.068,1.068,0,0,1,.82.216,2.5,2.5,0,0,1,.574.651c.83,1.247,1.594,2.54,2.431,3.787.231.343.671-.027.562-.356-.238-.72-.4-1.452-.667-2.163-.387-1.02-1.232-2.134-.69-3.225a1.34,1.34,0,0,1,.545-.626,1.7,1.7,0,0,1,1.23.035c.723.206,1.395.478,2.106.708.906.293,1.838.5,2.767.708a.515.515,0,0,0,.352-.967c-1.671-.75-4.107-1.176-5.34-2.609a1.565,1.565,0,0,1-.324-.538c-.327-1.045.719-1.648,1.441-2.081.946-.567,1.843-1.212,2.759-1.828.343-.231-.028-.671-.356-.562-.72.239-1.451.4-2.163.667-1,.381-3.36,2.037-3.735.133a6.144,6.144,0,0,1,.525-2.36c.215-.921.364-1.856.546-2.783.079-.4-.5-.448-.65-.141" transform="translate(0 0)" fill="#c7a666"/>
      </g>
    </g>
    <g id="Group_420" data-name="Group 420" transform="translate(5517.976 -3503.979)">
      <g id="Group_402-6" data-name="Group 402" transform="translate(0 0)" clip-path="url(#clip-path-25)">
        <path id="Path_4652-6" data-name="Path 4652" d="M12.957.2a36.133,36.133,0,0,0-1.949,4.2c-.189.537-.229,1.348-.944,1.356C9.044,5.77,8.642,4.8,8.222,4.048Q7.426,2.61,6.574,1.2a.436.436,0,0,0-.79.369Q6.295,2.91,6.854,4.229c.235.555.62,1.138.436,1.753C6.9,7.3,5.458,6.679,4.555,6.4,3.213,6,1.876,5.571.51,5.254c-.365-.085-.734.417-.34.648A43.587,43.587,0,0,0,4.749,8.151c.67.294,1.778.654,1.447,1.612-.285.826-1.331,1.189-2.022,1.578q-1.194.672-2.367,1.383a.436.436,0,0,0,.369.79q1.661-.635,3.293-1.344c.815-.353,1.782-.764,2.308.287a3.4,3.4,0,0,1-.151,2.37q-.4,1.4-.741,2.816a.436.436,0,0,0,.819.3q.624-1.4,1.194-2.816c.241-.6.6-1.444,1.327-1.59a1.068,1.068,0,0,1,.82.216,2.5,2.5,0,0,1,.574.651c.83,1.247,1.594,2.54,2.431,3.787.231.343.671-.027.562-.356-.238-.72-.4-1.452-.667-2.163-.387-1.02-1.232-2.134-.69-3.225a1.34,1.34,0,0,1,.545-.626,1.7,1.7,0,0,1,1.23.035c.723.206,1.395.478,2.106.708.906.293,1.838.5,2.767.708a.515.515,0,0,0,.352-.967c-1.671-.75-4.107-1.176-5.34-2.609a1.565,1.565,0,0,1-.324-.538c-.327-1.045.719-1.648,1.441-2.081.946-.567,1.843-1.212,2.759-1.828.343-.231-.028-.671-.356-.562-.72.239-1.451.4-2.163.667-1,.381-3.36,2.037-3.735.133a6.144,6.144,0,0,1,.525-2.36c.215-.921.364-1.856.546-2.783.079-.4-.5-.448-.65-.141" transform="translate(0 0)" fill="#c7a666"/>
      </g>
    </g>
    <g id="Group_412" data-name="Group 412" transform="translate(5257.067 -3503.979)">
      <g id="Group_402-7" data-name="Group 402" transform="translate(0 0)" clip-path="url(#clip-path-25)">
        <path id="Path_4652-7" data-name="Path 4652" d="M12.957.2a36.133,36.133,0,0,0-1.949,4.2c-.189.537-.229,1.348-.944,1.356C9.044,5.77,8.642,4.8,8.222,4.048Q7.426,2.61,6.574,1.2a.436.436,0,0,0-.79.369Q6.295,2.91,6.854,4.229c.235.555.62,1.138.436,1.753C6.9,7.3,5.458,6.679,4.555,6.4,3.213,6,1.876,5.571.51,5.254c-.365-.085-.734.417-.34.648A43.587,43.587,0,0,0,4.749,8.151c.67.294,1.778.654,1.447,1.612-.285.826-1.331,1.189-2.022,1.578q-1.194.672-2.367,1.383a.436.436,0,0,0,.369.79q1.661-.635,3.293-1.344c.815-.353,1.782-.764,2.308.287a3.4,3.4,0,0,1-.151,2.37q-.4,1.4-.741,2.816a.436.436,0,0,0,.819.3q.624-1.4,1.194-2.816c.241-.6.6-1.444,1.327-1.59a1.068,1.068,0,0,1,.82.216,2.5,2.5,0,0,1,.574.651c.83,1.247,1.594,2.54,2.431,3.787.231.343.671-.027.562-.356-.238-.72-.4-1.452-.667-2.163-.387-1.02-1.232-2.134-.69-3.225a1.34,1.34,0,0,1,.545-.626,1.7,1.7,0,0,1,1.23.035c.723.206,1.395.478,2.106.708.906.293,1.838.5,2.767.708a.515.515,0,0,0,.352-.967c-1.671-.75-4.107-1.176-5.34-2.609a1.565,1.565,0,0,1-.324-.538c-.327-1.045.719-1.648,1.441-2.081.946-.567,1.843-1.212,2.759-1.828.343-.231-.028-.671-.356-.562-.72.239-1.451.4-2.163.667-1,.381-3.36,2.037-3.735.133a6.144,6.144,0,0,1,.525-2.36c.215-.921.364-1.856.546-2.783.079-.4-.5-.448-.65-.141" transform="translate(0 0)" fill="#c7a666"/>
      </g>
    </g>
    <g id="Group_428" data-name="Group 428" transform="translate(5778.883 -3503.979)">
      <g id="Group_402-8" data-name="Group 402" transform="translate(0 0)" clip-path="url(#clip-path-25)">
        <path id="Path_4652-8" data-name="Path 4652" d="M12.957.2a36.133,36.133,0,0,0-1.949,4.2c-.189.537-.229,1.348-.944,1.356C9.044,5.77,8.642,4.8,8.222,4.048Q7.426,2.61,6.574,1.2a.436.436,0,0,0-.79.369Q6.295,2.91,6.854,4.229c.235.555.62,1.138.436,1.753C6.9,7.3,5.458,6.679,4.555,6.4,3.213,6,1.876,5.571.51,5.254c-.365-.085-.734.417-.34.648A43.587,43.587,0,0,0,4.749,8.151c.67.294,1.778.654,1.447,1.612-.285.826-1.331,1.189-2.022,1.578q-1.194.672-2.367,1.383a.436.436,0,0,0,.369.79q1.661-.635,3.293-1.344c.815-.353,1.782-.764,2.308.287a3.4,3.4,0,0,1-.151,2.37q-.4,1.4-.741,2.816a.436.436,0,0,0,.819.3q.624-1.4,1.194-2.816c.241-.6.6-1.444,1.327-1.59a1.068,1.068,0,0,1,.82.216,2.5,2.5,0,0,1,.574.651c.83,1.247,1.594,2.54,2.431,3.787.231.343.671-.027.562-.356-.238-.72-.4-1.452-.667-2.163-.387-1.02-1.232-2.134-.69-3.225a1.34,1.34,0,0,1,.545-.626,1.7,1.7,0,0,1,1.23.035c.723.206,1.395.478,2.106.708.906.293,1.838.5,2.767.708a.515.515,0,0,0,.352-.967c-1.671-.75-4.107-1.176-5.34-2.609a1.565,1.565,0,0,1-.324-.538c-.327-1.045.719-1.648,1.441-2.081.946-.567,1.843-1.212,2.759-1.828.343-.231-.028-.671-.356-.562-.72.239-1.451.4-2.163.667-1,.381-3.36,2.037-3.735.133a6.144,6.144,0,0,1,.525-2.36c.215-.921.364-1.856.546-2.783.079-.4-.5-.448-.65-.141" transform="translate(0 0)" fill="#c7a666"/>
      </g>
    </g>
  </g>
</svg>
