<?xml version="1.0" encoding="UTF-8"?><svg id="Component_7_10" xmlns="http://www.w3.org/2000/svg" xmlns:xlink="http://www.w3.org/1999/xlink" viewBox="0 0 303.2 243.3"><defs><style>.cls-1{fill:none;}.cls-2{clip-path:url(#clippath);}.cls-3{fill:#9e7852;}.cls-4{fill:#c7a666;}</style><clipPath id="clippath"><rect class="cls-1" y="108.7" width="303.2" height="134.6"/></clipPath></defs><circle id="Ellipse_2" class="cls-4" cx="147.19" cy="90" r="90"/><g id="Group_383"><g class="cls-2"><g id="Group_383-2"><path id="Path_4616" class="cls-3" d="m219.93,225.9l-4.92,2.8c-1.7.97-3.86.38-4.82-1.32-.02-.04-.05-.08-.07-.12-5.62-10.85-23.33-42.23-25.17-45.61-.51-.8-.27-1.86.53-2.36.02-.01.04-.02.06-.04,1.09-.85,2.26-1.59,3.38-2.4.48-.44,1.23-.41,1.68.07,0,0,.02.02.02.03,3.5,2.96,24.03,40.39,29.61,47.42.35.45.28,1.09-.17,1.45-.04.03-.09.06-.13.09"/><path id="Path_4617" class="cls-3" d="m39.01,197.15c16.22-16.24,35.22-28.78,40.11-32.75.69-.56,1.69-.45,2.25.24,0,0,0,0,0,.01.47.58.91,1.19,1.3,1.82.34.58.27,1.31-.18,1.81-3.23,3.58-10.25,10.67-17.41,18.13-4.25,4.43-14.22,13.51-17.94,18.45-1.66,2.21-9.87-5.98-8.13-7.72"/><path id="Path_4618" class="cls-3" d="m107.17,179.07c.71.19,1.37.55,1.9,1.06.29.36.32.85.07,1.24-5.45,9.22-17.93,41.66-20.79,45.86-.9,1.32-8.6-2.16-7.19-4.63,3.66-5.67,21.37-37.03,24.82-43.04.23-.44.73-.64,1.2-.49"/><path id="Path_4619" class="cls-3" d="m4.35,111.34c7.8,1.39,40.81.8,46.57.91.46-.02.88.25,1.04.68l.71,2.59c.14.53-.34,1.03-1.01,1.07l-46.17,3.89c-.51.07-1-.24-1.15-.73-.32-1.58-1.03-5.21-1.32-7.47-.08-.6.61-1.09,1.35-.95"/><path id="Path_4620" class="cls-3" d="m297.31,111.78c.44.07.75.47.69.92-.35,2.96,3.5,4.1,1.73,6.33-.8,1.02-53.15-2.04-56.5-2.77-.63-.15-1.08-.7-1.11-1.34-.1-.49-.12-1-.06-1.5.04-.8.7-1.43,1.5-1.42,3.17.12,23.75-.26,28.54-1.06,4.04-.67,20.98.25,25.21.85"/><path id="Path_4621" class="cls-3" d="m10.44,166.93l-2.13-5.24c-.73-1.81.14-3.87,1.95-4.61.04-.02.09-.03.13-.05,11.5-4.14,44.93-17.55,48.53-18.93.86-.4,1.88-.02,2.27.84,0,.02.02.04.03.06.7,1.2,1.28,2.45,1.94,3.67.37.54.24,1.28-.3,1.65,0,0-.02.01-.03.02-3.4,3.08-43.21,18.49-50.92,23.09-.49.29-1.12.13-1.41-.36-.03-.05-.05-.09-.07-.14"/><path id="Path_4622" class="cls-3" d="m256.34,198.14c-2.19,2.35-5.83,2.57-8.29.52-8.77-7.39-27.97-23.63-31.72-27.5-1.87-1.93-3.35-4.13-5.29-5.92-.37-.34-.43-.91-.12-1.32.43-.58,1.05-1.32,1.59-1.93.57-.65,1.54-.75,2.23-.23,5.4,4.13,40.95,30.22,43.35,32.22.63.52.72,1.46.19,2.09-.02.02-.04.05-.06.07l-1.87,2.01Z"/><path id="Path_4623" class="cls-3" d="m233.03,141.06c.11-.73.41-1.42.85-2,.32-.32.82-.4,1.23-.2,9.74,4.44,49.95,17.95,54.42,20.36,1.41.76-1.23,8.78-3.84,7.64-6.02-3.04-45.71-21.87-52.05-24.66-.45-.18-.71-.66-.61-1.14"/><path id="Path_4624" class="cls-3" d="m121.88,235.38c2.71-7.44,8.94-42.84,10.04-48.5.06-.45.4-.82.85-.91l2.67-.25c.54-.05.96.51.88,1.18l-5.44,51.61c-.02.51-.4.94-.91,1.01-1.61.04-5.1-2.56-7.38-2.66-.6-.03-.97-.79-.71-1.49"/><path id="Path_4625" class="cls-3" d="m165.5,237.79c-1-13.7-5.34-42.35-6.73-50.82-.13-.77.37-1.49,1.13-1.65,1.03-.21,1.9-.4,2.77-.62s1.22.04,1.47.87c2.08,5.85,3.68,11.86,4.78,17.97,2.17,13.23,4.35,30.41,4.97,34.5.1.62-.12,1.24-.58,1.67-.35.33-.76.7-1.04.94-2,1.7-6.58-.24-6.78-2.87"/></g></g></g></svg>